<svg width="555" height="277" viewBox="0 0 555 277" fill="none" xmlns="http://www.w3.org/2000/svg">
<rect x="39" width="516" height="254" rx="10" fill="#DE80B9"/>
<rect x="22" y="14" width="533" height="254" rx="10" fill="#F9DCE2"/>
<path d="M0 270.893C0 267.579 2.68629 264.893 6 264.893H555V276.893H5.99999C2.68628 276.893 0 274.207 0 270.893V270.893Z" fill="#3E3832"/>
<path d="M62.8025 90V59.805H75.875C78.32 59.805 80.345 60.165 81.95 60.885C83.555 61.59 84.755 62.5575 85.55 63.7875C86.36 65.0025 86.765 66.3825 86.765 67.9275C86.765 69.5925 86.285 71.0025 85.325 72.1575C84.38 73.3125 83.135 74.1525 81.59 74.6775C82.625 74.9475 83.57 75.36 84.425 75.915C85.28 76.47 85.9625 77.205 86.4725 78.12C86.9975 79.02 87.26 80.1375 87.26 81.4725C87.26 82.3575 87.095 83.295 86.765 84.285C86.435 85.275 85.8575 86.205 85.0325 87.075C84.2075 87.93 83.06 88.635 81.59 89.19C80.12 89.73 78.245 90 75.965 90H62.8025ZM70.0025 83.7H75.74C76.955 83.7 77.8775 83.475 78.5075 83.025C79.1375 82.56 79.4525 81.8925 79.4525 81.0225C79.4525 80.1525 79.1525 79.455 78.5525 78.93C77.9675 78.405 77.03 78.1425 75.74 78.1425H70.0025V83.7ZM70.0025 66.0375V71.7975H75.56C76.94 71.7975 77.9225 71.535 78.5075 71.01C79.0925 70.485 79.385 69.8025 79.385 68.9625C79.385 68.1525 79.0925 67.4625 78.5075 66.8925C77.9375 66.3225 76.97 66.0375 75.605 66.0375H70.0025ZM93.1677 90V59.805H113.35V66.0375H100.368V71.8425H112.54V78.0975H100.368V83.7H113.35V90H93.1677ZM117.774 90L127.944 59.805H137.101L146.709 90H139.126L137.484 84.69H127.066L125.424 90H117.774ZM128.889 79.3575H135.841L132.421 68.31L128.889 79.3575ZM151.173 59.805H158.688L170.816 78.075H170.321V59.805H177.521V90H170.568L157.181 69.93H158.373V90H151.173V59.805ZM196.509 90.72C194.349 90.72 192.346 90.36 190.501 89.64C188.656 88.905 187.156 87.765 186.001 86.22C184.846 84.66 184.209 82.635 184.089 80.145H191.199C191.199 81.06 191.431 81.8175 191.896 82.4175C192.361 83.0175 192.991 83.46 193.786 83.745C194.596 84.03 195.489 84.1725 196.464 84.1725C197.244 84.1725 197.971 84.105 198.646 83.97C199.336 83.835 199.891 83.595 200.311 83.25C200.731 82.905 200.941 82.4325 200.941 81.8325C200.941 81.0975 200.716 80.55 200.266 80.19C199.831 79.83 199.036 79.4175 197.881 78.9525L191.311 76.095C189.151 75.165 187.471 74.07 186.271 72.81C185.071 71.55 184.471 69.8325 184.471 67.6575C184.471 65.1075 185.506 63.0525 187.576 61.4925C189.661 59.9175 192.511 59.13 196.126 59.13C199.801 59.13 202.621 60 204.586 61.74C206.551 63.465 207.654 65.9325 207.894 69.1425H200.829C200.649 68.1525 200.206 67.32 199.501 66.645C198.811 65.97 197.686 65.6325 196.126 65.6325C195.001 65.6325 194.094 65.8425 193.404 66.2625C192.714 66.6675 192.369 67.1775 192.369 67.7925C192.369 68.3625 192.586 68.8125 193.021 69.1425C193.471 69.4725 194.139 69.8325 195.024 70.2225L201.976 73.17C204.286 74.175 206.004 75.3525 207.129 76.7025C208.269 78.0525 208.839 79.6725 208.839 81.5625C208.839 83.5875 208.351 85.2825 207.376 86.6475C206.416 87.9975 205.014 89.0175 203.169 89.7075C201.339 90.3825 199.119 90.72 196.509 90.72Z" fill="#5D64B0"/>
<path d="M246 75C246 77.2091 247.791 79 250 79C252.209 79 254 77.2091 254 75C254 72.7909 252.209 71 250 71C247.791 71 246 72.7909 246 75ZM250 75.75H291.5V74.25H250V75.75ZM291.5 75.75H333V74.25H291.5V75.75Z" fill="#5D64B0"/>
<path d="M59.15 121.687V118.225H72.9625V121.687H67.175L68.075 120.787V135H64.075V120.787L64.975 121.687H59.15ZM77.8859 135.4C76.7443 135.4 75.6943 135.167 74.7359 134.7C73.7859 134.225 73.0234 133.508 72.4484 132.55C71.8818 131.583 71.5984 130.358 71.5984 128.875C71.5984 127.342 71.8818 126.092 72.4484 125.125C73.0234 124.158 73.7859 123.446 74.7359 122.987C75.6943 122.521 76.7443 122.287 77.8859 122.287C79.0026 122.287 80.0318 122.521 80.9734 122.987C81.9151 123.446 82.6693 124.158 83.2359 125.125C83.8109 126.092 84.0984 127.342 84.0984 128.875C84.0984 130.358 83.8109 131.583 83.2359 132.55C82.6693 133.508 81.9151 134.225 80.9734 134.7C80.0318 135.167 79.0026 135.4 77.8859 135.4ZM77.7359 131.912C78.1193 131.912 78.4901 131.812 78.8484 131.612C79.2151 131.412 79.5193 131.092 79.7609 130.65C80.0026 130.2 80.1234 129.608 80.1234 128.875C80.1234 127.733 79.9193 126.929 79.5109 126.462C79.1026 125.996 78.6109 125.762 78.0359 125.762C77.6526 125.762 77.2693 125.862 76.8859 126.062C76.5109 126.262 76.1984 126.592 75.9484 127.05C75.7068 127.5 75.5859 128.108 75.5859 128.875C75.5859 129.983 75.7984 130.767 76.2234 131.225C76.6568 131.683 77.1609 131.912 77.7359 131.912ZM98.5971 135.4C97.8137 135.4 97.0804 135.258 96.3971 134.975C95.7221 134.692 95.1762 134.25 94.7596 133.65C94.3512 133.042 94.1471 132.262 94.1471 131.312V119.575H98.1721V131.162C98.1721 131.912 98.5429 132.287 99.2846 132.287C99.5179 132.287 99.7637 132.262 100.022 132.212C100.289 132.154 100.597 132.062 100.947 131.937L101.535 134.725C101.026 134.908 100.539 135.067 100.072 135.2C99.6137 135.333 99.1221 135.4 98.5971 135.4ZM92.6846 125.275V122.687H100.972V125.275H92.6846ZM112.549 135V127.825C112.549 127.175 112.39 126.696 112.074 126.387C111.757 126.071 111.374 125.912 110.924 125.912C110.465 125.912 110.044 126.042 109.661 126.3C109.278 126.558 108.969 126.975 108.736 127.55C108.511 128.117 108.399 128.871 108.399 129.812H107.186C107.186 128.046 107.394 126.608 107.811 125.5C108.236 124.392 108.811 123.579 109.536 123.062C110.269 122.546 111.099 122.287 112.024 122.287C113.082 122.287 113.944 122.525 114.611 123C115.286 123.475 115.782 124.129 116.099 124.962C116.415 125.796 116.574 126.75 116.574 127.825V135H112.549ZM104.399 135V117.75H108.399V135H104.399ZM125.413 135.4C124.379 135.4 123.408 135.133 122.5 134.6C121.592 134.067 120.854 133.304 120.288 132.312C119.729 131.321 119.45 130.146 119.45 128.787C119.45 127.429 119.729 126.267 120.288 125.3C120.846 124.325 121.579 123.579 122.488 123.062C123.396 122.546 124.371 122.287 125.413 122.287C126.446 122.287 127.346 122.496 128.113 122.912C128.879 123.321 129.496 123.875 129.963 124.575C130.438 125.275 130.746 126.067 130.888 126.95C131.038 127.825 131.008 128.729 130.8 129.662H122.613V127.637H127.875L127.3 128.012C127.325 127.721 127.313 127.425 127.263 127.125C127.221 126.825 127.133 126.55 127 126.3C126.867 126.042 126.675 125.837 126.425 125.687C126.183 125.529 125.871 125.45 125.488 125.45C125.063 125.45 124.692 125.554 124.375 125.762C124.067 125.962 123.825 126.258 123.65 126.65C123.483 127.033 123.4 127.504 123.4 128.062V129.637C123.4 130.162 123.475 130.617 123.625 131C123.775 131.383 123.996 131.683 124.288 131.9C124.588 132.108 124.963 132.212 125.413 132.212C125.779 132.212 126.1 132.137 126.375 131.987C126.65 131.837 126.842 131.6 126.95 131.275H130.925C130.8 132.042 130.492 132.737 130 133.362C129.517 133.987 128.883 134.483 128.1 134.85C127.325 135.217 126.429 135.4 125.413 135.4ZM138.947 122.687H143.585L145.597 131.587H145.422L147.435 122.687H152.06L147.797 135H143.21L138.947 122.687ZM159.25 135.4C158.217 135.4 157.246 135.133 156.338 134.6C155.43 134.067 154.692 133.304 154.125 132.312C153.567 131.321 153.288 130.146 153.288 128.787C153.288 127.429 153.567 126.267 154.125 125.3C154.684 124.325 155.417 123.579 156.325 123.062C157.234 122.546 158.209 122.287 159.25 122.287C160.284 122.287 161.184 122.496 161.95 122.912C162.717 123.321 163.334 123.875 163.8 124.575C164.275 125.275 164.584 126.067 164.725 126.95C164.875 127.825 164.846 128.729 164.638 129.662H156.45V127.637H161.713L161.138 128.012C161.163 127.721 161.15 127.425 161.1 127.125C161.059 126.825 160.971 126.55 160.838 126.3C160.705 126.042 160.513 125.837 160.263 125.687C160.021 125.529 159.709 125.45 159.325 125.45C158.9 125.45 158.53 125.554 158.213 125.762C157.905 125.962 157.663 126.258 157.488 126.65C157.321 127.033 157.238 127.504 157.238 128.062V129.637C157.238 130.162 157.313 130.617 157.463 131C157.613 131.383 157.834 131.683 158.125 131.9C158.425 132.108 158.8 132.212 159.25 132.212C159.617 132.212 159.938 132.137 160.213 131.987C160.488 131.837 160.68 131.6 160.788 131.275H164.763C164.638 132.042 164.33 132.737 163.838 133.362C163.355 133.987 162.721 134.483 161.938 134.85C161.163 135.217 160.267 135.4 159.25 135.4ZM168.022 135V122.612H172.022V135H168.022ZM171.172 129.75C171.172 128.075 171.384 126.7 171.809 125.625C172.234 124.55 172.772 123.754 173.422 123.237C174.072 122.721 174.734 122.462 175.409 122.462C175.543 122.462 175.676 122.471 175.809 122.487C175.943 122.496 176.068 122.512 176.184 122.537L176.222 126.562C176.013 126.537 175.801 126.521 175.584 126.512C175.368 126.496 175.163 126.487 174.972 126.487C174.388 126.487 173.872 126.596 173.422 126.812C172.98 127.029 172.634 127.375 172.384 127.85C172.143 128.325 172.022 128.958 172.022 129.75H171.172ZM176.929 122.687H181.504L184.029 131.5H183.417L185.929 122.687H189.979L185.179 136.988C184.596 138.671 183.917 139.829 183.142 140.463C182.375 141.096 181.479 141.413 180.454 141.413C179.829 141.413 179.2 141.354 178.567 141.238C177.942 141.129 177.317 140.946 176.692 140.688V137.25C177.158 137.467 177.613 137.629 178.054 137.738C178.504 137.854 178.942 137.913 179.367 137.913C179.65 137.913 179.917 137.858 180.167 137.75C180.417 137.65 180.646 137.471 180.854 137.213C181.063 136.954 181.238 136.6 181.379 136.15L181.779 135L176.929 122.687ZM205.941 135.4C205.233 135.4 204.57 135.188 203.954 134.762C203.345 134.329 202.854 133.667 202.479 132.775C202.112 131.875 201.929 130.729 201.929 129.337H202.979C202.979 129.771 203.091 130.171 203.316 130.537C203.55 130.904 203.841 131.2 204.191 131.425C204.55 131.642 204.912 131.75 205.279 131.75C205.787 131.75 206.22 131.621 206.579 131.362C206.945 131.104 207.229 130.75 207.429 130.3C207.629 129.85 207.729 129.342 207.729 128.775C207.729 128.233 207.629 127.746 207.429 127.312C207.237 126.879 206.958 126.537 206.591 126.287C206.225 126.037 205.779 125.912 205.254 125.912C204.845 125.912 204.466 126.008 204.116 126.2C203.775 126.392 203.5 126.662 203.291 127.012C203.083 127.354 202.979 127.758 202.979 128.225H201.929C201.929 126.9 202.095 125.8 202.429 124.925C202.77 124.042 203.262 123.383 203.904 122.95C204.554 122.508 205.341 122.287 206.266 122.287C207.3 122.287 208.225 122.558 209.041 123.1C209.866 123.642 210.52 124.4 211.004 125.375C211.487 126.342 211.729 127.475 211.729 128.775C211.729 130.092 211.47 131.25 210.954 132.25C210.445 133.242 209.754 134.017 208.879 134.575C208.012 135.125 207.033 135.4 205.941 135.4ZM198.979 135V117.75H202.979V131.788L201.479 135H198.979ZM219.822 135.4C218.788 135.4 217.818 135.133 216.909 134.6C216.001 134.067 215.263 133.304 214.697 132.312C214.138 131.321 213.859 130.146 213.859 128.787C213.859 127.429 214.138 126.267 214.697 125.3C215.255 124.325 215.988 123.579 216.897 123.062C217.805 122.546 218.78 122.287 219.822 122.287C220.855 122.287 221.755 122.496 222.522 122.912C223.288 123.321 223.905 123.875 224.372 124.575C224.847 125.275 225.155 126.067 225.297 126.95C225.447 127.825 225.418 128.729 225.209 129.662H217.022V127.637H222.284L221.709 128.012C221.734 127.721 221.722 127.425 221.672 127.125C221.63 126.825 221.543 126.55 221.409 126.3C221.276 126.042 221.084 125.837 220.834 125.687C220.593 125.529 220.28 125.45 219.897 125.45C219.472 125.45 219.101 125.554 218.784 125.762C218.476 125.962 218.234 126.258 218.059 126.65C217.893 127.033 217.809 127.504 217.809 128.062V129.637C217.809 130.162 217.884 130.617 218.034 131C218.184 131.383 218.405 131.683 218.697 131.9C218.997 132.108 219.372 132.212 219.822 132.212C220.188 132.212 220.509 132.137 220.784 131.987C221.059 131.837 221.251 131.6 221.359 131.275H225.334C225.209 132.042 224.901 132.737 224.409 133.362C223.926 133.987 223.293 134.483 222.509 134.85C221.734 135.217 220.838 135.4 219.822 135.4ZM233.743 141.413C232.176 141.413 230.851 141.2 229.768 140.775C228.693 140.358 227.876 139.813 227.318 139.138C226.768 138.471 226.493 137.763 226.493 137.013C226.493 136.221 226.776 135.6 227.343 135.15C227.91 134.7 228.601 134.475 229.418 134.475L232.705 135.412C231.98 135.412 231.422 135.529 231.03 135.763C230.639 136.004 230.443 136.346 230.443 136.788C230.443 137.288 230.751 137.654 231.368 137.888C231.993 138.121 232.785 138.238 233.743 138.238C234.418 138.238 234.993 138.129 235.468 137.913C235.943 137.704 236.301 137.433 236.543 137.1C236.793 136.767 236.918 136.421 236.918 136.063C236.918 135.846 236.855 135.683 236.73 135.575C236.614 135.467 236.426 135.412 236.168 135.412H232.705C231.88 135.412 231.089 135.271 230.33 134.987C229.572 134.704 228.951 134.317 228.468 133.825C227.993 133.325 227.755 132.762 227.755 132.137C227.755 131.621 227.897 131.167 228.18 130.775C228.464 130.383 228.864 130.079 229.38 129.862C229.905 129.646 230.514 129.537 231.205 129.537L232.355 130.775C232.122 130.775 231.91 130.812 231.718 130.887C231.535 130.962 231.389 131.075 231.28 131.225C231.172 131.367 231.118 131.546 231.118 131.762C231.118 132.046 231.243 132.267 231.493 132.425C231.743 132.575 232.147 132.65 232.705 132.65H236.168C237.635 132.65 238.785 132.887 239.618 133.362C240.451 133.829 240.868 134.629 240.868 135.763C240.868 136.729 240.572 137.642 239.98 138.5C239.389 139.367 238.56 140.067 237.493 140.6C236.426 141.142 235.176 141.413 233.743 141.413ZM233.68 130.987C232.68 130.987 231.751 130.812 230.893 130.462C230.043 130.104 229.355 129.604 228.83 128.962C228.305 128.312 228.043 127.546 228.043 126.662C228.043 125.754 228.305 124.975 228.83 124.325C229.355 123.667 230.043 123.162 230.893 122.812C231.751 122.462 232.68 122.287 233.68 122.287C234.664 122.287 235.585 122.462 236.443 122.812C237.301 123.162 237.997 123.667 238.53 124.325C239.064 124.975 239.33 125.754 239.33 126.662C239.33 127.546 239.064 128.312 238.53 128.962C237.997 129.604 237.301 130.104 236.443 130.462C235.585 130.812 234.664 130.987 233.68 130.987ZM233.73 128.25C234.339 128.25 234.768 128.096 235.018 127.787C235.276 127.479 235.405 127.104 235.405 126.662C235.405 126.146 235.276 125.742 235.018 125.45C234.76 125.15 234.314 125 233.68 125C233.105 125 232.68 125.15 232.405 125.45C232.13 125.742 231.993 126.146 231.993 126.662C231.993 127.104 232.13 127.479 232.405 127.787C232.689 128.096 233.13 128.25 233.73 128.25ZM238.38 124.287L236.58 123.1C236.58 122.342 236.78 121.683 237.18 121.125C237.58 120.567 238.093 120.133 238.718 119.825C239.343 119.517 239.985 119.362 240.643 119.362L240.493 123.137C239.801 123.137 239.276 123.233 238.918 123.425C238.56 123.608 238.38 123.896 238.38 124.287ZM245.995 121.1C245.237 121.1 244.649 120.908 244.233 120.525C243.824 120.133 243.62 119.583 243.62 118.875C243.62 118.183 243.824 117.633 244.233 117.225C244.649 116.808 245.237 116.6 245.995 116.6C246.728 116.6 247.308 116.808 247.733 117.225C248.158 117.633 248.37 118.183 248.37 118.875C248.37 119.583 248.158 120.133 247.733 120.525C247.308 120.908 246.728 121.1 245.995 121.1ZM243.995 135V122.612H247.995V135H243.995ZM260.742 135V127.825C260.742 127.175 260.584 126.696 260.267 126.387C259.95 126.071 259.567 125.912 259.117 125.912C258.659 125.912 258.238 126.042 257.854 126.3C257.471 126.558 257.163 126.975 256.929 127.55C256.704 128.117 256.592 128.871 256.592 129.812H255.379C255.379 128.046 255.588 126.608 256.004 125.5C256.429 124.392 257.004 123.579 257.729 123.062C258.463 122.546 259.292 122.287 260.217 122.287C261.275 122.287 262.138 122.525 262.804 123C263.479 123.475 263.975 124.129 264.292 124.962C264.609 125.796 264.767 126.75 264.767 127.825V135H260.742ZM252.592 135V122.687H256.117L256.592 124.725V135H252.592ZM276.831 135V127.825C276.831 127.175 276.673 126.696 276.356 126.387C276.039 126.071 275.656 125.912 275.206 125.912C274.748 125.912 274.327 126.042 273.943 126.3C273.56 126.558 273.252 126.975 273.018 127.55C272.793 128.117 272.681 128.871 272.681 129.812H271.468C271.468 128.046 271.677 126.608 272.093 125.5C272.518 124.392 273.093 123.579 273.818 123.062C274.552 122.546 275.381 122.287 276.306 122.287C277.364 122.287 278.227 122.525 278.893 123C279.568 123.475 280.064 124.129 280.381 124.962C280.698 125.796 280.856 126.75 280.856 127.825V135H276.831ZM268.681 135V122.687H272.206L272.681 124.725V135H268.681ZM287.157 121.1C286.399 121.1 285.811 120.908 285.395 120.525C284.986 120.133 284.782 119.583 284.782 118.875C284.782 118.183 284.986 117.633 285.395 117.225C285.811 116.808 286.399 116.6 287.157 116.6C287.891 116.6 288.47 116.808 288.895 117.225C289.32 117.633 289.532 118.183 289.532 118.875C289.532 119.583 289.32 120.133 288.895 120.525C288.47 120.908 287.891 121.1 287.157 121.1ZM285.157 135V122.612H289.157V135H285.157ZM301.904 135V127.825C301.904 127.175 301.746 126.696 301.429 126.387C301.112 126.071 300.729 125.912 300.279 125.912C299.821 125.912 299.4 126.042 299.017 126.3C298.633 126.558 298.325 126.975 298.092 127.55C297.867 128.117 297.754 128.871 297.754 129.812H296.542C296.542 128.046 296.75 126.608 297.167 125.5C297.592 124.392 298.167 123.579 298.892 123.062C299.625 122.546 300.454 122.287 301.379 122.287C302.437 122.287 303.3 122.525 303.967 123C304.642 123.475 305.137 124.129 305.454 124.962C305.771 125.796 305.929 126.75 305.929 127.825V135H301.904ZM293.754 135V122.687H297.279L297.754 124.725V135H293.754ZM314.993 141.413C313.426 141.413 312.101 141.2 311.018 140.775C309.943 140.358 309.126 139.813 308.568 139.138C308.018 138.471 307.743 137.763 307.743 137.013C307.743 136.221 308.026 135.6 308.593 135.15C309.16 134.7 309.851 134.475 310.668 134.475L313.955 135.412C313.23 135.412 312.672 135.529 312.28 135.763C311.889 136.004 311.693 136.346 311.693 136.788C311.693 137.288 312.001 137.654 312.618 137.888C313.243 138.121 314.035 138.238 314.993 138.238C315.668 138.238 316.243 138.129 316.718 137.913C317.193 137.704 317.551 137.433 317.793 137.1C318.043 136.767 318.168 136.421 318.168 136.063C318.168 135.846 318.105 135.683 317.98 135.575C317.864 135.467 317.676 135.412 317.418 135.412H313.955C313.13 135.412 312.339 135.271 311.58 134.987C310.822 134.704 310.201 134.317 309.718 133.825C309.243 133.325 309.005 132.762 309.005 132.137C309.005 131.621 309.147 131.167 309.43 130.775C309.714 130.383 310.114 130.079 310.63 129.862C311.155 129.646 311.764 129.537 312.455 129.537L313.605 130.775C313.372 130.775 313.16 130.812 312.968 130.887C312.785 130.962 312.639 131.075 312.53 131.225C312.422 131.367 312.368 131.546 312.368 131.762C312.368 132.046 312.493 132.267 312.743 132.425C312.993 132.575 313.397 132.65 313.955 132.65H317.418C318.885 132.65 320.035 132.887 320.868 133.362C321.701 133.829 322.118 134.629 322.118 135.763C322.118 136.729 321.822 137.642 321.23 138.5C320.639 139.367 319.81 140.067 318.743 140.6C317.676 141.142 316.426 141.413 314.993 141.413ZM314.93 130.987C313.93 130.987 313.001 130.812 312.143 130.462C311.293 130.104 310.605 129.604 310.08 128.962C309.555 128.312 309.293 127.546 309.293 126.662C309.293 125.754 309.555 124.975 310.08 124.325C310.605 123.667 311.293 123.162 312.143 122.812C313.001 122.462 313.93 122.287 314.93 122.287C315.914 122.287 316.835 122.462 317.693 122.812C318.551 123.162 319.247 123.667 319.78 124.325C320.314 124.975 320.58 125.754 320.58 126.662C320.58 127.546 320.314 128.312 319.78 128.962C319.247 129.604 318.551 130.104 317.693 130.462C316.835 130.812 315.914 130.987 314.93 130.987ZM314.98 128.25C315.589 128.25 316.018 128.096 316.268 127.787C316.526 127.479 316.655 127.104 316.655 126.662C316.655 126.146 316.526 125.742 316.268 125.45C316.01 125.15 315.564 125 314.93 125C314.355 125 313.93 125.15 313.655 125.45C313.38 125.742 313.243 126.146 313.243 126.662C313.243 127.104 313.38 127.479 313.655 127.787C313.939 128.096 314.38 128.25 314.98 128.25ZM319.63 124.287L317.83 123.1C317.83 122.342 318.03 121.683 318.43 121.125C318.83 120.567 319.343 120.133 319.968 119.825C320.593 119.517 321.235 119.362 321.893 119.362L321.743 123.137C321.051 123.137 320.526 123.233 320.168 123.425C319.81 123.608 319.63 123.896 319.63 124.287ZM336.846 135.4C335.704 135.4 334.654 135.167 333.696 134.7C332.746 134.225 331.983 133.508 331.408 132.55C330.842 131.583 330.558 130.358 330.558 128.875C330.558 127.342 330.842 126.092 331.408 125.125C331.983 124.158 332.746 123.446 333.696 122.987C334.654 122.521 335.704 122.287 336.846 122.287C337.963 122.287 338.992 122.521 339.933 122.987C340.875 123.446 341.629 124.158 342.196 125.125C342.771 126.092 343.058 127.342 343.058 128.875C343.058 130.358 342.771 131.583 342.196 132.55C341.629 133.508 340.875 134.225 339.933 134.7C338.992 135.167 337.963 135.4 336.846 135.4ZM336.696 131.912C337.079 131.912 337.45 131.812 337.808 131.612C338.175 131.412 338.479 131.092 338.721 130.65C338.963 130.2 339.083 129.608 339.083 128.875C339.083 127.733 338.879 126.929 338.471 126.462C338.063 125.996 337.571 125.762 336.996 125.762C336.613 125.762 336.229 125.862 335.846 126.062C335.471 126.262 335.158 126.592 334.908 127.05C334.667 127.5 334.546 128.108 334.546 128.875C334.546 129.983 334.758 130.767 335.183 131.225C335.617 131.683 336.121 131.912 336.696 131.912ZM347.019 135V121.612C347.019 120.646 347.21 119.862 347.594 119.262C347.977 118.662 348.477 118.225 349.094 117.95C349.71 117.667 350.36 117.525 351.044 117.525C351.51 117.525 352.002 117.558 352.519 117.625C353.035 117.683 353.531 117.746 354.006 117.812L353.219 120.85C353.052 120.808 352.869 120.767 352.669 120.725C352.477 120.683 352.281 120.662 352.081 120.662C351.881 120.662 351.706 120.7 351.556 120.775C351.406 120.85 351.29 120.967 351.206 121.125C351.123 121.275 351.081 121.462 351.081 121.687V135H347.019ZM345.381 125.275V122.687H353.044V125.275H345.381ZM367.608 135.4C366.433 135.4 365.396 135.246 364.496 134.937C363.596 134.621 362.892 134.15 362.383 133.525C361.883 132.892 361.638 132.096 361.646 131.137H365.258C365.275 131.571 365.442 131.871 365.758 132.037C366.083 132.204 366.521 132.287 367.071 132.287C367.404 132.287 367.679 132.246 367.896 132.162C368.113 132.079 368.275 131.971 368.383 131.837C368.492 131.696 368.546 131.546 368.546 131.387C368.546 131.179 368.471 131.012 368.321 130.887C368.171 130.762 367.938 130.637 367.621 130.512L364.633 129.35C363.75 128.983 363.067 128.521 362.583 127.962C362.108 127.396 361.871 126.725 361.871 125.95C361.871 124.858 362.375 123.975 363.383 123.3C364.392 122.625 365.771 122.287 367.521 122.287C369.163 122.287 370.425 122.671 371.308 123.437C372.192 124.204 372.638 125.179 372.646 126.362H368.983C368.983 126.096 368.871 125.867 368.646 125.675C368.421 125.475 368.046 125.375 367.521 125.375C367.088 125.375 366.746 125.446 366.496 125.587C366.246 125.729 366.121 125.917 366.121 126.15C366.121 126.467 366.383 126.717 366.908 126.9L370.308 128.262C371.15 128.596 371.813 129.012 372.296 129.512C372.779 130.012 373.021 130.637 373.021 131.387C373.021 132.071 372.783 132.721 372.308 133.337C371.842 133.946 371.2 134.442 370.383 134.825C369.567 135.208 368.642 135.4 367.608 135.4ZM384.153 135L383.641 131.712V127.1C383.641 126.483 383.528 126.004 383.303 125.662C383.078 125.321 382.599 125.15 381.866 125.15C381.432 125.15 381.078 125.217 380.803 125.35C380.537 125.475 380.337 125.646 380.203 125.862C380.078 126.071 380.016 126.3 380.016 126.55H375.691C375.691 125.583 375.92 124.787 376.378 124.162C376.837 123.529 377.524 123.058 378.441 122.75C379.357 122.442 380.499 122.287 381.866 122.287C383.057 122.287 384.082 122.471 384.941 122.837C385.807 123.204 386.474 123.754 386.941 124.487C387.407 125.221 387.641 126.142 387.641 127.25V135H384.153ZM380.278 135.4C379.178 135.4 378.249 135.217 377.491 134.85C376.741 134.475 376.174 133.971 375.791 133.337C375.407 132.704 375.216 132.004 375.216 131.237C375.216 130.512 375.416 129.887 375.816 129.362C376.216 128.829 376.807 128.417 377.591 128.125C378.382 127.833 379.353 127.687 380.503 127.687C381.203 127.687 381.82 127.725 382.353 127.8C382.895 127.875 383.449 127.967 384.016 128.075V130.325C383.599 130.233 383.166 130.162 382.716 130.112C382.274 130.062 381.841 130.037 381.416 130.037C380.824 130.037 380.353 130.133 380.003 130.325C379.662 130.508 379.491 130.812 379.491 131.237C379.491 131.546 379.645 131.817 379.953 132.05C380.262 132.275 380.749 132.387 381.416 132.387C381.982 132.387 382.428 132.275 382.753 132.05C383.078 131.825 383.307 131.542 383.441 131.2C383.574 130.858 383.641 130.521 383.641 130.187H384.578C384.578 131.137 384.428 132.008 384.128 132.8C383.828 133.592 383.362 134.225 382.728 134.7C382.095 135.167 381.278 135.4 380.278 135.4ZM389.631 122.687H394.268L396.281 131.587H396.106L398.118 122.687H402.743L398.481 135H393.893L389.631 122.687ZM410.259 135.4C409.117 135.4 408.067 135.167 407.109 134.7C406.159 134.225 405.396 133.508 404.821 132.55C404.255 131.583 403.971 130.358 403.971 128.875C403.971 127.342 404.255 126.092 404.821 125.125C405.396 124.158 406.159 123.446 407.109 122.987C408.067 122.521 409.117 122.287 410.259 122.287C411.376 122.287 412.405 122.521 413.346 122.987C414.288 123.446 415.042 124.158 415.609 125.125C416.184 126.092 416.471 127.342 416.471 128.875C416.471 130.358 416.184 131.583 415.609 132.55C415.042 133.508 414.288 134.225 413.346 134.7C412.405 135.167 411.376 135.4 410.259 135.4ZM410.109 131.912C410.492 131.912 410.863 131.812 411.221 131.612C411.588 131.412 411.892 131.092 412.134 130.65C412.376 130.2 412.496 129.608 412.496 128.875C412.496 127.733 412.292 126.929 411.884 126.462C411.476 125.996 410.984 125.762 410.409 125.762C410.026 125.762 409.642 125.862 409.259 126.062C408.884 126.262 408.571 126.592 408.321 127.05C408.08 127.5 407.959 128.108 407.959 128.875C407.959 129.983 408.171 130.767 408.596 131.225C409.03 131.683 409.534 131.912 410.109 131.912ZM419.682 135V122.612H423.682V135H419.682ZM422.832 129.75C422.832 128.075 423.044 126.7 423.469 125.625C423.894 124.55 424.432 123.754 425.082 123.237C425.732 122.721 426.394 122.462 427.069 122.462C427.203 122.462 427.336 122.471 427.469 122.487C427.603 122.496 427.728 122.512 427.844 122.537L427.882 126.562C427.674 126.537 427.461 126.521 427.244 126.512C427.028 126.496 426.824 126.487 426.632 126.487C426.049 126.487 425.532 126.596 425.082 126.812C424.64 127.029 424.294 127.375 424.044 127.85C423.803 128.325 423.682 128.958 423.682 129.75H422.832ZM428.589 122.687H433.164L435.689 131.5H435.077L437.589 122.687H441.639L436.839 136.988C436.256 138.671 435.577 139.829 434.802 140.463C434.035 141.096 433.139 141.413 432.114 141.413C431.489 141.413 430.86 141.354 430.227 141.238C429.602 141.129 428.977 140.946 428.352 140.688V137.25C428.819 137.467 429.273 137.629 429.714 137.738C430.164 137.854 430.602 137.913 431.027 137.913C431.31 137.913 431.577 137.858 431.827 137.75C432.077 137.65 432.306 137.471 432.514 137.213C432.723 136.954 432.898 136.6 433.039 136.15L433.439 135L428.589 122.687ZM442.226 132.675C442.226 131.933 442.471 131.317 442.963 130.825C443.463 130.333 444.109 130.087 444.901 130.087C445.692 130.087 446.346 130.333 446.863 130.825C447.38 131.317 447.638 131.933 447.638 132.675C447.638 133.417 447.38 134.029 446.863 134.512C446.346 134.988 445.692 135.225 444.901 135.225C444.109 135.225 443.463 134.983 442.963 134.5C442.471 134.017 442.226 133.408 442.226 132.675Z" fill="#5D64B0"/>
</svg>
