<svg width="817" height="198" viewBox="0 0 817 198" fill="none" xmlns="http://www.w3.org/2000/svg">
<path d="M91.045 0C64.6126 11 39.1592 18.5 0 35.5H52.3754H815V0H91.045Z" fill="#4E9F69"/>
<line x1="49.5566" y1="35.37" x2="49.5566" y2="197.991" stroke="black" stroke-width="1.5"/>
<line x1="0.75" y1="35" x2="0.750007" y2="197.621" stroke="black" stroke-width="1.5"/>
<line x1="94.7559" y1="35.37" x2="94.7559" y2="197.991" stroke="black" stroke-width="1.5"/>
<line x1="139.955" y1="35.37" x2="139.955" y2="197.991" stroke="black" stroke-width="1.5"/>
<line x1="185.156" y1="35.37" x2="185.156" y2="197.991" stroke="black" stroke-width="1.5"/>
<line x1="230.355" y1="35.37" x2="230.355" y2="197.991" stroke="black" stroke-width="1.5"/>
<line x1="275.555" y1="35.37" x2="275.555" y2="197.991" stroke="black" stroke-width="1.5"/>
<line x1="320.756" y1="35.37" x2="320.756" y2="197.991" stroke="black" stroke-width="1.5"/>
<line x1="364.717" y1="35.37" x2="364.717" y2="197.991" stroke="black" stroke-width="1.5"/>
<line x1="411.156" y1="35.37" x2="411.156" y2="197.991" stroke="black" stroke-width="1.5"/>
<line x1="456.355" y1="35.37" x2="456.355" y2="197.991" stroke="black" stroke-width="1.5"/>
<line x1="501.555" y1="35.37" x2="501.555" y2="197.991" stroke="black" stroke-width="1.5"/>
<line x1="546.754" y1="35.37" x2="546.754" y2="197.991" stroke="black" stroke-width="1.5"/>
<line x1="591.955" y1="35.37" x2="591.955" y2="197.991" stroke="black" stroke-width="1.5"/>
<line x1="637.156" y1="35.37" x2="637.156" y2="197.991" stroke="black" stroke-width="1.5"/>
<line x1="682.355" y1="35.37" x2="682.355" y2="197.991" stroke="black" stroke-width="1.5"/>
<line x1="727.555" y1="35.37" x2="727.555" y2="197.991" stroke="black" stroke-width="1.5"/>
<line x1="772.756" y1="35.37" x2="772.756" y2="197.991" stroke="black" stroke-width="1.5"/>
<line x1="815.75" y1="35" x2="815.75" y2="197.621" stroke="black" stroke-width="1.5"/>
<line y1="81.25" x2="815" y2="81.25" stroke="black" stroke-width="1.5"/>
<line y1="130.25" x2="815" y2="130.25" stroke="black" stroke-width="1.5"/>
</svg>
