<svg width="782" height="532" viewBox="0 0 782 532" fill="none" xmlns="http://www.w3.org/2000/svg">
<rect x="27" width="755" height="508" rx="20" fill="#F6C55D"/>
<path d="M93.225 114.45H104.675L112.1 132.35H111.475L118.9 114.45H129.9V148H121.85V124.125H122.95L114.325 144.875H109.15L100.575 124.175H101.225V148H93.225V114.45ZM93.175 218V184.45H115.6V191.375H101.175V197.825H114.7V204.775H101.175V211H115.6V218H93.175ZM93.075 254.45H101.425L114.9 274.75H114.35V254.45H122.35V288H114.625L99.75 265.7H101.075V288H93.075V254.45ZM92.95 324.45H100.95V344.8C100.95 347.183 101.558 348.9 102.775 349.95C103.992 351 105.517 351.525 107.35 351.525C109.217 351.525 110.758 351 111.975 349.95C113.208 348.9 113.825 347.183 113.825 344.8V324.45H121.8V344.8C121.8 347.633 121.242 350.1 120.125 352.2C119.008 354.3 117.375 355.925 115.225 357.075C113.075 358.225 110.45 358.8 107.35 358.8C104.25 358.8 101.625 358.225 99.475 357.075C97.3417 355.925 95.7167 354.3 94.6 352.2C93.5 350.1 92.95 347.633 92.95 344.8V324.45Z" fill="#FFF4DD"/>
<rect y="24" width="755" height="508" rx="20" fill="#E49B00"/>
<path d="M66.225 138.45H77.675L85.1 156.35H84.475L91.9 138.45H102.9V172H94.85V148.125H95.95L87.325 168.875H82.15L73.575 148.175H74.225V172H66.225V138.45ZM66.175 242V208.45H88.6V215.375H74.175V221.825H87.7V228.775H74.175V235H88.6V242H66.175ZM66.075 278.45H74.425L87.9 298.75H87.35V278.45H95.35V312H87.625L72.75 289.7H74.075V312H66.075V278.45ZM65.95 348.45H73.95V368.8C73.95 371.183 74.5583 372.9 75.775 373.95C76.9917 375 78.5167 375.525 80.35 375.525C82.2167 375.525 83.7583 375 84.975 373.95C86.2083 372.9 86.825 371.183 86.825 368.8V348.45H94.8V368.8C94.8 371.633 94.2417 374.1 93.125 376.2C92.0083 378.3 90.375 379.925 88.225 381.075C86.075 382.225 83.45 382.8 80.35 382.8C77.25 382.8 74.625 382.225 72.475 381.075C70.3417 379.925 68.7167 378.3 67.6 376.2C66.5 374.1 65.95 371.633 65.95 368.8V348.45Z" fill="#FFF4DD"/>
<path d="M185 254C185 256.209 186.791 258 189 258C191.209 258 193 256.209 193 254C193 251.791 191.209 250 189 250C186.791 250 185 251.791 185 254ZM189 254.75H230.5V253.25H189V254.75ZM230.5 254.75H272V253.25H230.5V254.75Z" fill="#FFF4DD"/>
<path d="M316.291 234.541H320.931V246.344C320.931 247.726 321.284 248.722 321.989 249.331C322.695 249.94 323.58 250.244 324.643 250.244C325.726 250.244 326.62 249.94 327.326 249.331C328.041 248.722 328.399 247.726 328.399 246.344V234.541H333.024V246.344C333.024 247.987 332.7 249.418 332.053 250.636C331.405 251.854 330.458 252.796 329.211 253.463C327.964 254.131 326.441 254.464 324.643 254.464C322.845 254.464 321.323 254.131 320.076 253.463C318.838 252.796 317.896 251.854 317.248 250.636C316.61 249.418 316.291 247.987 316.291 246.344V234.541ZM347.031 254V245.677C347.031 244.923 346.848 244.367 346.48 244.009C346.113 243.642 345.668 243.458 345.146 243.458C344.615 243.458 344.127 243.608 343.682 243.908C343.237 244.208 342.88 244.691 342.609 245.358C342.348 246.015 342.217 246.89 342.217 247.982H340.811C340.811 245.933 341.053 244.266 341.536 242.98C342.029 241.694 342.696 240.752 343.537 240.152C344.388 239.553 345.349 239.253 346.422 239.253C347.65 239.253 348.651 239.529 349.424 240.08C350.207 240.631 350.782 241.39 351.149 242.356C351.517 243.323 351.7 244.43 351.7 245.677V254H347.031ZM337.577 254V239.717H341.666L342.217 242.081V254H337.577ZM362.07 254.464C360.823 254.464 359.663 254.15 358.59 253.522C357.526 252.893 356.666 252.009 356.009 250.868C355.361 249.727 355.037 248.393 355.037 246.866C355.037 245.194 355.361 243.797 356.009 242.675C356.666 241.544 357.526 240.694 358.59 240.123C359.663 239.543 360.823 239.253 362.07 239.253C363.123 239.253 364.042 239.432 364.825 239.79C365.617 240.148 366.275 240.616 366.797 241.196C367.319 241.776 367.705 242.414 367.957 243.11C368.218 243.806 368.348 244.488 368.348 245.155L363.708 245.111C363.64 244.696 363.471 244.319 363.201 243.98C362.94 243.632 362.553 243.458 362.041 243.458C361.635 243.458 361.248 243.565 360.881 243.777C360.523 243.98 360.228 244.328 359.996 244.821C359.774 245.314 359.663 245.996 359.663 246.866C359.663 247.717 359.774 248.388 359.996 248.881C360.228 249.374 360.523 249.722 360.881 249.925C361.248 250.128 361.635 250.23 362.041 250.23C362.698 250.23 363.138 250.08 363.36 249.78C363.592 249.471 363.708 249.084 363.708 248.62H368.348C368.348 249.645 368.121 250.602 367.667 251.491C367.212 252.381 366.521 253.101 365.593 253.652C364.675 254.193 363.5 254.464 362.07 254.464ZM378.105 254.464C376.781 254.464 375.563 254.193 374.451 253.652C373.349 253.101 372.464 252.27 371.797 251.158C371.14 250.037 370.811 248.616 370.811 246.895C370.811 245.116 371.14 243.666 371.797 242.545C372.464 241.424 373.349 240.597 374.451 240.065C375.563 239.524 376.781 239.253 378.105 239.253C379.4 239.253 380.594 239.524 381.686 240.065C382.779 240.597 383.654 241.424 384.311 242.545C384.978 243.666 385.311 245.116 385.311 246.895C385.311 248.616 384.978 250.037 384.311 251.158C383.654 252.27 382.779 253.101 381.686 253.652C380.594 254.193 379.4 254.464 378.105 254.464ZM377.931 250.418C378.376 250.418 378.806 250.302 379.221 250.07C379.647 249.838 380 249.466 380.28 248.954C380.56 248.432 380.7 247.746 380.7 246.895C380.7 245.571 380.464 244.638 379.99 244.096C379.516 243.555 378.946 243.284 378.279 243.284C377.834 243.284 377.39 243.4 376.945 243.632C376.51 243.864 376.147 244.246 375.857 244.778C375.577 245.3 375.437 246.006 375.437 246.895C375.437 248.181 375.683 249.089 376.176 249.621C376.679 250.153 377.264 250.418 377.931 250.418ZM386.744 239.717H392.124L394.458 250.041H394.255L396.59 239.717H401.955L397.01 254H391.689L386.744 239.717ZM410.296 254.464C409.098 254.464 407.971 254.155 406.918 253.536C405.864 252.917 405.009 252.033 404.351 250.882C403.704 249.732 403.38 248.369 403.38 246.793C403.38 245.218 403.704 243.869 404.351 242.748C404.999 241.617 405.85 240.752 406.903 240.152C407.957 239.553 409.088 239.253 410.296 239.253C411.495 239.253 412.539 239.495 413.428 239.978C414.318 240.452 415.033 241.095 415.574 241.907C416.125 242.719 416.483 243.637 416.647 244.662C416.821 245.677 416.787 246.726 416.546 247.808H407.048V245.459H413.153L412.486 245.894C412.515 245.556 412.5 245.213 412.442 244.865C412.394 244.517 412.292 244.198 412.138 243.908C411.983 243.608 411.761 243.371 411.471 243.197C411.19 243.014 410.828 242.922 410.383 242.922C409.89 242.922 409.46 243.043 409.093 243.284C408.735 243.516 408.455 243.86 408.252 244.314C408.058 244.759 407.962 245.305 407.962 245.952V247.779C407.962 248.388 408.049 248.915 408.223 249.36C408.397 249.805 408.653 250.153 408.991 250.404C409.339 250.646 409.774 250.766 410.296 250.766C410.722 250.766 411.094 250.679 411.413 250.505C411.732 250.331 411.954 250.056 412.08 249.679H416.691C416.546 250.568 416.188 251.375 415.618 252.1C415.057 252.825 414.322 253.401 413.414 253.826C412.515 254.251 411.476 254.464 410.296 254.464ZM420.471 254V239.63H425.111V254H420.471ZM424.125 247.91C424.125 245.967 424.372 244.372 424.865 243.125C425.358 241.878 425.981 240.955 426.735 240.355C427.489 239.756 428.258 239.456 429.041 239.456C429.195 239.456 429.35 239.466 429.505 239.485C429.659 239.495 429.804 239.514 429.94 239.543L429.983 244.212C429.741 244.183 429.495 244.164 429.244 244.154C428.992 244.135 428.755 244.125 428.533 244.125C427.856 244.125 427.257 244.251 426.735 244.502C426.223 244.754 425.822 245.155 425.532 245.706C425.251 246.257 425.111 246.992 425.111 247.91H424.125ZM445.885 254.464C444.976 254.464 444.125 254.3 443.333 253.971C442.55 253.642 441.917 253.13 441.433 252.434C440.96 251.728 440.723 250.824 440.723 249.722V236.107H445.392V249.548C445.392 250.418 445.822 250.853 446.682 250.853C446.953 250.853 447.238 250.824 447.538 250.766C447.847 250.699 448.205 250.592 448.611 250.447L449.292 253.681C448.703 253.894 448.137 254.077 447.596 254.232C447.064 254.387 446.494 254.464 445.885 254.464ZM439.026 242.719V239.717H448.64V242.719H439.026ZM462.069 254V245.677C462.069 244.923 461.885 244.367 461.518 244.009C461.15 243.642 460.706 243.458 460.184 243.458C459.652 243.458 459.164 243.608 458.719 243.908C458.274 244.208 457.917 244.691 457.646 245.358C457.385 246.015 457.255 246.89 457.255 247.982H455.848C455.848 245.933 456.09 244.266 456.573 242.98C457.066 241.694 457.733 240.752 458.574 240.152C459.425 239.553 460.387 239.253 461.46 239.253C462.687 239.253 463.688 239.529 464.461 240.08C465.244 240.631 465.819 241.39 466.187 242.356C466.554 243.323 466.738 244.43 466.738 245.677V254H462.069ZM452.615 254V233.99H457.255V254H452.615ZM476.991 254.464C475.792 254.464 474.666 254.155 473.612 253.536C472.558 252.917 471.703 252.033 471.046 250.882C470.398 249.732 470.074 248.369 470.074 246.793C470.074 245.218 470.398 243.869 471.046 242.748C471.693 241.617 472.544 240.752 473.598 240.152C474.651 239.553 475.782 239.253 476.991 239.253C478.189 239.253 479.233 239.495 480.123 239.978C481.012 240.452 481.727 241.095 482.269 241.907C482.82 242.719 483.177 243.637 483.342 244.662C483.516 245.677 483.482 246.726 483.24 247.808H473.743V245.459H479.847L479.18 245.894C479.209 245.556 479.195 245.213 479.137 244.865C479.088 244.517 478.987 244.198 478.832 243.908C478.677 243.608 478.455 243.371 478.165 243.197C477.885 243.014 477.522 242.922 477.078 242.922C476.585 242.922 476.154 243.043 475.787 243.284C475.429 243.516 475.149 243.86 474.946 244.314C474.753 244.759 474.656 245.305 474.656 245.952V247.779C474.656 248.388 474.743 248.915 474.917 249.36C475.091 249.805 475.347 250.153 475.686 250.404C476.034 250.646 476.469 250.766 476.991 250.766C477.416 250.766 477.788 250.679 478.107 250.505C478.426 250.331 478.648 250.056 478.774 249.679H483.385C483.24 250.568 482.882 251.375 482.312 252.1C481.751 252.825 481.017 253.401 480.108 253.826C479.209 254.251 478.17 254.464 476.991 254.464ZM500.506 254.464C499.143 254.464 497.94 254.285 496.896 253.927C495.852 253.56 495.035 253.014 494.445 252.289C493.865 251.554 493.58 250.631 493.59 249.519H497.78C497.8 250.022 497.993 250.37 498.36 250.563C498.737 250.757 499.245 250.853 499.883 250.853C500.269 250.853 500.588 250.805 500.84 250.708C501.091 250.612 501.28 250.486 501.405 250.331C501.531 250.167 501.594 249.993 501.594 249.809C501.594 249.568 501.507 249.374 501.333 249.229C501.159 249.084 500.888 248.939 500.521 248.794L497.055 247.446C496.031 247.021 495.238 246.484 494.677 245.836C494.126 245.179 493.851 244.401 493.851 243.502C493.851 242.236 494.436 241.211 495.605 240.428C496.775 239.645 498.375 239.253 500.405 239.253C502.309 239.253 503.774 239.698 504.798 240.587C505.823 241.477 506.34 242.608 506.35 243.98H502.101C502.101 243.671 501.971 243.405 501.71 243.183C501.449 242.951 501.014 242.835 500.405 242.835C499.902 242.835 499.506 242.917 499.216 243.081C498.926 243.246 498.781 243.463 498.781 243.734C498.781 244.101 499.085 244.391 499.694 244.604L503.638 246.184C504.615 246.571 505.383 247.054 505.944 247.634C506.504 248.214 506.785 248.939 506.785 249.809C506.785 250.602 506.509 251.356 505.958 252.071C505.417 252.777 504.673 253.352 503.725 253.797C502.778 254.242 501.705 254.464 500.506 254.464ZM515.609 254.464C514.701 254.464 513.85 254.3 513.057 253.971C512.274 253.642 511.641 253.13 511.158 252.434C510.684 251.728 510.447 250.824 510.447 249.722V236.107H515.116V249.548C515.116 250.418 515.547 250.853 516.407 250.853C516.678 250.853 516.963 250.824 517.262 250.766C517.572 250.699 517.929 250.592 518.335 250.447L519.017 253.681C518.427 253.894 517.862 254.077 517.32 254.232C516.789 254.387 516.218 254.464 515.609 254.464ZM508.751 242.719V239.717H518.364V242.719H508.751ZM528.429 254.464C527.105 254.464 525.887 254.193 524.775 253.652C523.673 253.101 522.789 252.27 522.122 251.158C521.464 250.037 521.136 248.616 521.136 246.895C521.136 245.116 521.464 243.666 522.122 242.545C522.789 241.424 523.673 240.597 524.775 240.065C525.887 239.524 527.105 239.253 528.429 239.253C529.725 239.253 530.918 239.524 532.011 240.065C533.103 240.597 533.978 241.424 534.635 242.545C535.302 243.666 535.636 245.116 535.636 246.895C535.636 248.616 535.302 250.037 534.635 251.158C533.978 252.27 533.103 253.101 532.011 253.652C530.918 254.193 529.725 254.464 528.429 254.464ZM528.255 250.418C528.7 250.418 529.13 250.302 529.546 250.07C529.971 249.838 530.324 249.466 530.604 248.954C530.885 248.432 531.025 247.746 531.025 246.895C531.025 245.571 530.788 244.638 530.314 244.096C529.841 243.555 529.27 243.284 528.603 243.284C528.159 243.284 527.714 243.4 527.269 243.632C526.834 243.864 526.472 244.246 526.182 244.778C525.901 245.3 525.761 246.006 525.761 246.895C525.761 248.181 526.008 249.089 526.501 249.621C527.003 250.153 527.588 250.418 528.255 250.418ZM539.36 254V239.63H544V254H539.36ZM543.014 247.91C543.014 245.967 543.26 244.372 543.753 243.125C544.246 241.878 544.87 240.955 545.624 240.355C546.378 239.756 547.146 239.456 547.929 239.456C548.084 239.456 548.239 239.466 548.393 239.485C548.548 239.495 548.693 239.514 548.828 239.543L548.872 244.212C548.63 244.183 548.384 244.164 548.132 244.154C547.881 244.135 547.644 244.125 547.422 244.125C546.745 244.125 546.146 244.251 545.624 244.502C545.111 244.754 544.71 245.155 544.42 245.706C544.14 246.257 544 246.992 544 247.91H543.014ZM549.693 239.717H555L557.929 249.94H557.218L560.133 239.717H564.831L559.263 256.306C558.586 258.258 557.798 259.602 556.899 260.337C556.01 261.071 554.971 261.439 553.782 261.439C553.057 261.439 552.327 261.371 551.592 261.236C550.867 261.11 550.142 260.897 549.417 260.598V256.61C549.958 256.861 550.485 257.05 550.998 257.176C551.52 257.311 552.027 257.379 552.52 257.379C552.849 257.379 553.158 257.316 553.448 257.19C553.738 257.074 554.004 256.866 554.246 256.567C554.487 256.267 554.69 255.856 554.855 255.334L555.319 254L549.693 239.717ZM578.039 237.876C577.16 237.876 576.478 237.654 575.995 237.209C575.521 236.755 575.284 236.117 575.284 235.295C575.284 234.493 575.521 233.855 575.995 233.381C576.478 232.898 577.16 232.656 578.039 232.656C578.89 232.656 579.562 232.898 580.055 233.381C580.548 233.855 580.794 234.493 580.794 235.295C580.794 236.117 580.548 236.755 580.055 237.209C579.562 237.654 578.89 237.876 578.039 237.876ZM575.719 254V239.63H580.359V254H575.719ZM595.146 254V245.677C595.146 244.923 594.962 244.367 594.595 244.009C594.227 243.642 593.783 243.458 593.261 243.458C592.729 243.458 592.241 243.608 591.796 243.908C591.352 244.208 590.994 244.691 590.723 245.358C590.462 246.015 590.332 246.89 590.332 247.982H588.925C588.925 245.933 589.167 244.266 589.65 242.98C590.143 241.694 590.81 240.752 591.651 240.152C592.502 239.553 593.464 239.253 594.537 239.253C595.764 239.253 596.765 239.529 597.538 240.08C598.321 240.631 598.896 241.39 599.264 242.356C599.631 243.323 599.815 244.43 599.815 245.677V254H595.146ZM585.692 254V239.717H589.781L590.332 242.081V254H585.692ZM322.164 288.464C320.965 288.464 319.839 288.155 318.785 287.536C317.731 286.917 316.876 286.033 316.219 284.882C315.571 283.732 315.247 282.369 315.247 280.793C315.247 279.218 315.571 277.869 316.219 276.748C316.866 275.617 317.717 274.752 318.771 274.152C319.824 273.553 320.955 273.253 322.164 273.253C323.362 273.253 324.406 273.495 325.296 273.978C326.185 274.452 326.9 275.095 327.442 275.907C327.993 276.719 328.35 277.637 328.515 278.662C328.689 279.677 328.655 280.726 328.413 281.808H318.916V279.459H325.02L324.353 279.894C324.382 279.556 324.368 279.213 324.31 278.865C324.261 278.517 324.16 278.198 324.005 277.908C323.85 277.608 323.628 277.371 323.338 277.197C323.058 277.014 322.695 276.922 322.251 276.922C321.758 276.922 321.327 277.043 320.96 277.284C320.602 277.516 320.322 277.86 320.119 278.314C319.926 278.759 319.829 279.305 319.829 279.952V281.779C319.829 282.388 319.916 282.915 320.09 283.36C320.264 283.805 320.52 284.153 320.859 284.404C321.207 284.646 321.642 284.766 322.164 284.766C322.589 284.766 322.961 284.679 323.28 284.505C323.599 284.331 323.821 284.056 323.947 283.679H328.558C328.413 284.568 328.055 285.375 327.485 286.1C326.924 286.825 326.19 287.401 325.281 287.826C324.382 288.251 323.343 288.464 322.164 288.464ZM330.047 273.717H335.427L337.761 284.041H337.558L339.893 273.717H345.258L340.313 288H334.992L330.047 273.717ZM353.599 288.464C352.4 288.464 351.274 288.155 350.221 287.536C349.167 286.917 348.311 286.033 347.654 284.882C347.006 283.732 346.683 282.369 346.683 280.793C346.683 279.218 347.006 277.869 347.654 276.748C348.302 275.617 349.152 274.752 350.206 274.152C351.26 273.553 352.391 273.253 353.599 273.253C354.798 273.253 355.842 273.495 356.731 273.978C357.62 274.452 358.336 275.095 358.877 275.907C359.428 276.719 359.786 277.637 359.95 278.662C360.124 279.677 360.09 280.726 359.849 281.808H350.351V279.459H356.456L355.789 279.894C355.818 279.556 355.803 279.213 355.745 278.865C355.697 278.517 355.595 278.198 355.441 277.908C355.286 277.608 355.064 277.371 354.774 277.197C354.493 277.014 354.131 276.922 353.686 276.922C353.193 276.922 352.763 277.043 352.396 277.284C352.038 277.516 351.758 277.86 351.555 278.314C351.361 278.759 351.265 279.305 351.265 279.952V281.779C351.265 282.388 351.352 282.915 351.526 283.36C351.7 283.805 351.956 284.153 352.294 284.404C352.642 284.646 353.077 284.766 353.599 284.766C354.024 284.766 354.397 284.679 354.716 284.505C355.035 284.331 355.257 284.056 355.383 283.679H359.994C359.849 284.568 359.491 285.375 358.921 286.1C358.36 286.825 357.625 287.401 356.717 287.826C355.818 288.251 354.778 288.464 353.599 288.464ZM363.774 288V273.63H368.414V288H363.774ZM367.428 281.91C367.428 279.967 367.674 278.372 368.167 277.125C368.66 275.878 369.284 274.955 370.038 274.355C370.792 273.756 371.56 273.456 372.343 273.456C372.498 273.456 372.653 273.466 372.807 273.485C372.962 273.495 373.107 273.514 373.242 273.543L373.286 278.212C373.044 278.183 372.798 278.164 372.546 278.154C372.295 278.135 372.058 278.125 371.836 278.125C371.159 278.125 370.56 278.251 370.038 278.502C369.525 278.754 369.124 279.155 368.834 279.706C368.554 280.257 368.414 280.992 368.414 281.91H367.428ZM374.107 273.717H379.414L382.343 283.94H381.632L384.547 273.717H389.245L383.677 290.306C383 292.258 382.212 293.602 381.313 294.337C380.424 295.071 379.385 295.439 378.196 295.439C377.471 295.439 376.741 295.371 376.006 295.236C375.281 295.11 374.556 294.897 373.831 294.598V290.61C374.372 290.861 374.899 291.05 375.412 291.176C375.934 291.311 376.441 291.379 376.934 291.379C377.263 291.379 377.572 291.316 377.862 291.19C378.152 291.074 378.418 290.866 378.66 290.567C378.901 290.267 379.104 289.856 379.269 289.334L379.733 288L374.107 273.717ZM405.513 288.464C404.266 288.464 403.106 288.15 402.033 287.522C400.97 286.893 400.109 286.009 399.452 284.868C398.804 283.727 398.48 282.393 398.48 280.866C398.48 279.194 398.804 277.797 399.452 276.675C400.109 275.544 400.97 274.694 402.033 274.123C403.106 273.543 404.266 273.253 405.513 273.253C406.567 273.253 407.485 273.432 408.268 273.79C409.061 274.148 409.718 274.616 410.24 275.196C410.762 275.776 411.149 276.414 411.4 277.11C411.661 277.806 411.791 278.488 411.791 279.155L407.151 279.111C407.084 278.696 406.915 278.319 406.644 277.98C406.383 277.632 405.996 277.458 405.484 277.458C405.078 277.458 404.691 277.565 404.324 277.777C403.966 277.98 403.671 278.328 403.439 278.821C403.217 279.314 403.106 279.996 403.106 280.866C403.106 281.717 403.217 282.388 403.439 282.881C403.671 283.374 403.966 283.722 404.324 283.925C404.691 284.128 405.078 284.23 405.484 284.23C406.141 284.23 406.581 284.08 406.803 283.78C407.035 283.471 407.151 283.084 407.151 282.62H411.791C411.791 283.645 411.564 284.602 411.11 285.491C410.656 286.381 409.964 287.101 409.036 287.652C408.118 288.193 406.944 288.464 405.513 288.464ZM421.548 288.464C420.224 288.464 419.006 288.193 417.894 287.652C416.792 287.101 415.908 286.27 415.241 285.158C414.583 284.037 414.255 282.616 414.255 280.895C414.255 279.116 414.583 277.666 415.241 276.545C415.908 275.424 416.792 274.597 417.894 274.065C419.006 273.524 420.224 273.253 421.548 273.253C422.844 273.253 424.037 273.524 425.13 274.065C426.222 274.597 427.097 275.424 427.754 276.545C428.421 277.666 428.755 279.116 428.755 280.895C428.755 282.616 428.421 284.037 427.754 285.158C427.097 286.27 426.222 287.101 425.13 287.652C424.037 288.193 422.844 288.464 421.548 288.464ZM421.374 284.418C421.819 284.418 422.249 284.302 422.665 284.07C423.09 283.838 423.443 283.466 423.723 282.954C424.004 282.432 424.144 281.746 424.144 280.895C424.144 279.571 423.907 278.638 423.433 278.096C422.96 277.555 422.389 277.284 421.722 277.284C421.278 277.284 420.833 277.4 420.388 277.632C419.953 277.864 419.591 278.246 419.301 278.778C419.02 279.3 418.88 280.006 418.88 280.895C418.88 282.181 419.127 283.089 419.62 283.621C420.122 284.153 420.707 284.418 421.374 284.418ZM433.349 288V272.47C433.349 271.349 433.571 270.44 434.016 269.744C434.46 269.048 435.04 268.541 435.756 268.222C436.471 267.893 437.225 267.729 438.018 267.729C438.559 267.729 439.129 267.768 439.729 267.845C440.328 267.913 440.903 267.985 441.454 268.062L440.541 271.586C440.347 271.538 440.135 271.489 439.903 271.441C439.68 271.393 439.453 271.368 439.221 271.368C438.989 271.368 438.786 271.412 438.612 271.499C438.438 271.586 438.303 271.721 438.206 271.905C438.11 272.079 438.061 272.296 438.061 272.557V288H433.349ZM431.449 276.719V273.717H440.338V276.719H431.449ZM444.762 288V272.47C444.762 271.349 444.984 270.44 445.429 269.744C445.874 269.048 446.454 268.541 447.169 268.222C447.884 267.893 448.638 267.729 449.431 267.729C449.972 267.729 450.543 267.768 451.142 267.845C451.741 267.913 452.316 267.985 452.867 268.062L451.954 271.586C451.761 271.538 451.548 271.489 451.316 271.441C451.094 271.393 450.866 271.368 450.634 271.368C450.402 271.368 450.199 271.412 450.025 271.499C449.851 271.586 449.716 271.721 449.619 271.905C449.523 272.079 449.474 272.296 449.474 272.557V288H444.762ZM442.862 276.719V273.717H451.751V276.719H442.862ZM461.018 288.464C459.819 288.464 458.693 288.155 457.639 287.536C456.586 286.917 455.73 286.033 455.073 284.882C454.425 283.732 454.101 282.369 454.101 280.793C454.101 279.218 454.425 277.869 455.073 276.748C455.721 275.617 456.571 274.752 457.625 274.152C458.679 273.553 459.81 273.253 461.018 273.253C462.217 273.253 463.261 273.495 464.15 273.978C465.039 274.452 465.755 275.095 466.296 275.907C466.847 276.719 467.205 277.637 467.369 278.662C467.543 279.677 467.509 280.726 467.267 281.808H457.77V279.459H463.874L463.207 279.894C463.236 279.556 463.222 279.213 463.164 278.865C463.116 278.517 463.014 278.198 462.859 277.908C462.705 277.608 462.482 277.371 462.192 277.197C461.912 277.014 461.55 276.922 461.105 276.922C460.612 276.922 460.182 277.043 459.814 277.284C459.457 277.516 459.176 277.86 458.973 278.314C458.78 278.759 458.683 279.305 458.683 279.952V281.779C458.683 282.388 458.77 282.915 458.944 283.36C459.118 283.805 459.375 284.153 459.713 284.404C460.061 284.646 460.496 284.766 461.018 284.766C461.443 284.766 461.815 284.679 462.134 284.505C462.453 284.331 462.676 284.056 462.801 283.679H467.412C467.267 284.568 466.91 285.375 466.339 286.1C465.779 286.825 465.044 287.401 464.135 287.826C463.236 288.251 462.197 288.464 461.018 288.464ZM476.906 288.464C475.707 288.464 474.581 288.155 473.527 287.536C472.474 286.917 471.618 286.033 470.961 284.882C470.313 283.732 469.989 282.369 469.989 280.793C469.989 279.218 470.313 277.869 470.961 276.748C471.608 275.617 472.459 274.752 473.513 274.152C474.566 273.553 475.697 273.253 476.906 273.253C478.104 273.253 479.148 273.495 480.038 273.978C480.927 274.452 481.642 275.095 482.184 275.907C482.735 276.719 483.092 277.637 483.257 278.662C483.431 279.677 483.397 280.726 483.155 281.808H473.658V279.459H479.762L479.095 279.894C479.124 279.556 479.11 279.213 479.052 278.865C479.003 278.517 478.902 278.198 478.747 277.908C478.593 277.608 478.37 277.371 478.08 277.197C477.8 277.014 477.437 276.922 476.993 276.922C476.5 276.922 476.07 277.043 475.702 277.284C475.345 277.516 475.064 277.86 474.861 278.314C474.668 278.759 474.571 279.305 474.571 279.952V281.779C474.571 282.388 474.658 282.915 474.832 283.36C475.006 283.805 475.262 284.153 475.601 284.404C475.949 284.646 476.384 284.766 476.906 284.766C477.331 284.766 477.703 284.679 478.022 284.505C478.341 284.331 478.564 284.056 478.689 283.679H483.3C483.155 284.568 482.798 285.375 482.227 286.1C481.667 286.825 480.932 287.401 480.023 287.826C479.124 288.251 478.085 288.464 476.906 288.464ZM500.726 288.464C499.479 288.464 498.319 288.15 497.246 287.522C496.182 286.893 495.322 286.009 494.665 284.868C494.017 283.727 493.693 282.393 493.693 280.866C493.693 279.194 494.017 277.797 494.665 276.675C495.322 275.544 496.182 274.694 497.246 274.123C498.319 273.543 499.479 273.253 500.726 273.253C501.779 273.253 502.698 273.432 503.481 273.79C504.273 274.148 504.931 274.616 505.453 275.196C505.975 275.776 506.361 276.414 506.613 277.11C506.874 277.806 507.004 278.488 507.004 279.155L502.364 279.111C502.297 278.696 502.127 278.319 501.857 277.98C501.596 277.632 501.209 277.458 500.697 277.458C500.291 277.458 499.904 277.565 499.537 277.777C499.179 277.98 498.884 278.328 498.652 278.821C498.43 279.314 498.319 279.996 498.319 280.866C498.319 281.717 498.43 282.388 498.652 282.881C498.884 283.374 499.179 283.722 499.537 283.925C499.904 284.128 500.291 284.23 500.697 284.23C501.354 284.23 501.794 284.08 502.016 283.78C502.248 283.471 502.364 283.084 502.364 282.62H507.004C507.004 283.645 506.777 284.602 506.323 285.491C505.868 286.381 505.177 287.101 504.249 287.652C503.331 288.193 502.156 288.464 500.726 288.464ZM519.98 273.63H524.62V288H519.98V273.63ZM510.512 273.63H515.152V282.272C515.152 282.93 515.316 283.418 515.645 283.737C515.983 284.046 516.413 284.201 516.935 284.201C517.409 284.201 517.878 284.085 518.342 283.853C518.815 283.621 519.207 283.225 519.516 282.664C519.826 282.103 519.98 281.325 519.98 280.329H520.995C520.995 282.224 520.778 283.756 520.343 284.926C519.908 286.086 519.313 286.932 518.559 287.463C517.815 287.995 516.969 288.261 516.022 288.261C515.065 288.261 514.166 288.097 513.325 287.768C512.484 287.439 511.802 286.879 511.28 286.086C510.768 285.293 510.512 284.201 510.512 282.809V273.63ZM537.349 288.464C536.295 288.464 535.415 288.251 534.71 287.826C534.004 287.401 533.472 286.734 533.115 285.825C532.767 284.916 532.593 283.737 532.593 282.287H534.144C534.144 282.674 534.255 283.012 534.478 283.302C534.7 283.592 535 283.819 535.377 283.983C535.754 284.148 536.165 284.23 536.609 284.23C537.054 284.23 537.508 284.119 537.972 283.896C538.446 283.674 538.842 283.316 539.161 282.823C539.49 282.33 539.654 281.678 539.654 280.866C539.654 280.18 539.533 279.58 539.292 279.068C539.05 278.556 538.707 278.159 538.262 277.879C537.827 277.599 537.305 277.458 536.696 277.458C536.203 277.458 535.763 277.56 535.377 277.763C534.99 277.966 534.686 278.256 534.463 278.633C534.251 279 534.144 279.435 534.144 279.938H532.593C532.593 278.314 532.825 277.014 533.289 276.037C533.762 275.061 534.381 274.355 535.145 273.92C535.908 273.476 536.72 273.253 537.581 273.253C538.721 273.253 539.804 273.553 540.829 274.152C541.853 274.752 542.685 275.617 543.323 276.748C543.97 277.879 544.294 279.252 544.294 280.866C544.294 282.471 543.966 283.838 543.308 284.969C542.661 286.1 541.805 286.966 540.742 287.565C539.688 288.164 538.557 288.464 537.349 288.464ZM529.504 294.931V273.717H533.289L534.144 277.444V294.931H529.504ZM546.026 285.303C546.026 284.443 546.311 283.727 546.882 283.157C547.462 282.587 548.211 282.301 549.129 282.301C550.047 282.301 550.806 282.587 551.406 283.157C552.005 283.727 552.305 284.443 552.305 285.303C552.305 286.163 552.005 286.874 551.406 287.434C550.806 287.986 550.047 288.261 549.129 288.261C548.211 288.261 547.462 287.981 546.882 287.42C546.311 286.859 546.026 286.154 546.026 285.303Z" fill="#FEFFDA"/>
</svg>
