<svg width="555" height="263" viewBox="0 0 555 263" fill="none" xmlns="http://www.w3.org/2000/svg">
<g clip-path="url(#clip0_146_3720)">
<path d="M545 0H32C26.4772 0 22 4.47715 22 10V244C22 249.523 26.4772 254 32 254H545C550.523 254 555 249.523 555 244V10C555 4.47715 550.523 0 545 0Z" fill="#F9DCE2"/>
<path d="M556 250.893H6C2.68629 250.893 0 253.579 0 256.893C0 260.207 2.68629 262.893 6 262.893H556C559.314 262.893 562 260.207 562 256.893C562 253.579 559.314 250.893 556 250.893Z" fill="#3E3832"/>
</g>
<defs>
<clipPath id="clip0_146_3720">
<rect width="555" height="263" fill="white"/>
</clipPath>
</defs>
</svg>
