<svg width="470" height="251" viewBox="0 0 470 251" fill="none" xmlns="http://www.w3.org/2000/svg">
<rect x="16" width="454" height="97.2663" rx="5" fill="#8A6C6A"/>
<rect x="47.748" y="97.2307" width="390.504" height="112.146" fill="#8A6C6A"/>
<rect x="22.3496" y="209.046" width="439.713" height="27.9538" rx="1" fill="#8A6C6A"/>
<path d="M51.9138 61.145V30.95H64.9863C67.4313 30.95 69.4563 31.31 71.0613 32.03C72.6663 32.735 73.8663 33.7025 74.6613 34.9325C75.4713 36.1475 75.8763 37.5275 75.8763 39.0725C75.8763 40.7375 75.3963 42.1475 74.4363 43.3025C73.4913 44.4575 72.2463 45.2975 70.7013 45.8225C71.7363 46.0925 72.6813 46.505 73.5363 47.06C74.3913 47.615 75.0738 48.35 75.5838 49.265C76.1088 50.165 76.3713 51.2825 76.3713 52.6175C76.3713 53.5025 76.2063 54.44 75.8763 55.43C75.5463 56.42 74.9688 57.35 74.1438 58.22C73.3188 59.075 72.1713 59.78 70.7013 60.335C69.2313 60.875 67.3563 61.145 65.0763 61.145H51.9138ZM59.1138 54.845H64.8513C66.0663 54.845 66.9888 54.62 67.6188 54.17C68.2488 53.705 68.5638 53.0375 68.5638 52.1675C68.5638 51.2975 68.2638 50.6 67.6638 50.075C67.0788 49.55 66.1413 49.2875 64.8513 49.2875H59.1138V54.845ZM59.1138 37.1825V42.9425H64.6713C66.0513 42.9425 67.0338 42.68 67.6188 42.155C68.2038 41.63 68.4963 40.9475 68.4963 40.1075C68.4963 39.2975 68.2038 38.6075 67.6188 38.0375C67.0488 37.4675 66.0813 37.1825 64.7163 37.1825H59.1138ZM82.324 61.145V30.95H94.114C97.894 30.95 100.826 31.82 102.911 33.56C105.011 35.285 106.061 37.6025 106.061 40.5125C106.061 43.3625 105.011 45.65 102.911 47.375C100.826 49.085 97.894 49.94 94.114 49.94H89.524V61.145H82.324ZM98.074 61.145L90.7165 46.565H98.3215L107.501 61.145H98.074ZM89.524 45.26H93.304C95.089 45.26 96.424 44.8925 97.309 44.1575C98.209 43.4075 98.659 42.455 98.659 41.3C98.659 40.1 98.2765 39.1175 97.5115 38.3525C96.7615 37.5725 95.629 37.1825 94.114 37.1825H89.524V45.26ZM112.689 61.145V30.95H132.872V37.1825H119.889V42.9875H132.062V49.2425H119.889V54.845H132.872V61.145H112.689ZM136.755 30.95H144.765L151.538 54.8H149.873L156.285 31.85H161.145L168.21 54.26H166.748L173.138 30.95H181.305L171.225 61.145H163.643L158.783 45.935H159.098L154.463 61.145H146.903L136.755 30.95ZM185.376 61.145V30.95H192.576V61.145H185.376ZM200.094 30.95H207.609L219.737 49.22H219.242V30.95H226.442V61.145H219.489L206.102 41.075H207.294V61.145H200.094V30.95ZM245.497 61.865C242.962 61.865 240.69 61.19 238.68 59.84C236.685 58.49 235.102 56.63 233.932 54.26C232.777 51.875 232.2 49.1375 232.2 46.0475C232.2 43.7225 232.537 41.6 233.212 39.68C233.902 37.745 234.877 36.08 236.137 34.685C237.412 33.275 238.927 32.1875 240.682 31.4225C242.452 30.6575 244.417 30.275 246.577 30.275C249.847 30.275 252.51 31.0175 254.565 32.5025C256.62 33.9725 258.082 36.2825 258.952 39.4325L251.302 40.805C250.792 39.56 250.117 38.5775 249.277 37.8575C248.437 37.1375 247.402 36.7775 246.172 36.7775C245.002 36.7775 243.945 37.1525 243 37.9025C242.07 38.6525 241.335 39.7175 240.795 41.0975C240.255 42.4775 239.985 44.1275 239.985 46.0475C239.985 47.9525 240.255 49.6025 240.795 50.9975C241.335 52.3775 242.07 53.4425 243 54.1925C243.945 54.9425 245.002 55.3175 246.172 55.3175C247.327 55.3175 248.355 55.0775 249.255 54.5975C250.17 54.1025 250.882 53.4425 251.392 52.6175C251.917 51.7775 252.18 50.855 252.18 49.85H253.44C253.44 52.31 253.147 54.44 252.562 56.24C251.977 58.04 251.1 59.4275 249.93 60.4025C248.76 61.3775 247.282 61.865 245.497 61.865ZM253.08 61.145L252.18 54.935V49.58L246.172 49.535V45.125H259.02V61.145H253.08Z" fill="#8A6C6A"/>
<path d="M51.9138 61.145V30.95H64.9863C67.4313 30.95 69.4563 31.31 71.0613 32.03C72.6663 32.735 73.8663 33.7025 74.6613 34.9325C75.4713 36.1475 75.8763 37.5275 75.8763 39.0725C75.8763 40.7375 75.3963 42.1475 74.4363 43.3025C73.4913 44.4575 72.2463 45.2975 70.7013 45.8225C71.7363 46.0925 72.6813 46.505 73.5363 47.06C74.3913 47.615 75.0738 48.35 75.5838 49.265C76.1088 50.165 76.3713 51.2825 76.3713 52.6175C76.3713 53.5025 76.2063 54.44 75.8763 55.43C75.5463 56.42 74.9688 57.35 74.1438 58.22C73.3188 59.075 72.1713 59.78 70.7013 60.335C69.2313 60.875 67.3563 61.145 65.0763 61.145H51.9138ZM59.1138 54.845H64.8513C66.0663 54.845 66.9888 54.62 67.6188 54.17C68.2488 53.705 68.5638 53.0375 68.5638 52.1675C68.5638 51.2975 68.2638 50.6 67.6638 50.075C67.0788 49.55 66.1413 49.2875 64.8513 49.2875H59.1138V54.845ZM59.1138 37.1825V42.9425H64.6713C66.0513 42.9425 67.0338 42.68 67.6188 42.155C68.2038 41.63 68.4963 40.9475 68.4963 40.1075C68.4963 39.2975 68.2038 38.6075 67.6188 38.0375C67.0488 37.4675 66.0813 37.1825 64.7163 37.1825H59.1138ZM82.324 61.145V30.95H94.114C97.894 30.95 100.826 31.82 102.911 33.56C105.011 35.285 106.061 37.6025 106.061 40.5125C106.061 43.3625 105.011 45.65 102.911 47.375C100.826 49.085 97.894 49.94 94.114 49.94H89.524V61.145H82.324ZM98.074 61.145L90.7165 46.565H98.3215L107.501 61.145H98.074ZM89.524 45.26H93.304C95.089 45.26 96.424 44.8925 97.309 44.1575C98.209 43.4075 98.659 42.455 98.659 41.3C98.659 40.1 98.2765 39.1175 97.5115 38.3525C96.7615 37.5725 95.629 37.1825 94.114 37.1825H89.524V45.26ZM112.689 61.145V30.95H132.872V37.1825H119.889V42.9875H132.062V49.2425H119.889V54.845H132.872V61.145H112.689ZM136.755 30.95H144.765L151.538 54.8H149.873L156.285 31.85H161.145L168.21 54.26H166.748L173.138 30.95H181.305L171.225 61.145H163.643L158.783 45.935H159.098L154.463 61.145H146.903L136.755 30.95ZM185.376 61.145V30.95H192.576V61.145H185.376ZM200.094 30.95H207.609L219.737 49.22H219.242V30.95H226.442V61.145H219.489L206.102 41.075H207.294V61.145H200.094V30.95ZM245.497 61.865C242.962 61.865 240.69 61.19 238.68 59.84C236.685 58.49 235.102 56.63 233.932 54.26C232.777 51.875 232.2 49.1375 232.2 46.0475C232.2 43.7225 232.537 41.6 233.212 39.68C233.902 37.745 234.877 36.08 236.137 34.685C237.412 33.275 238.927 32.1875 240.682 31.4225C242.452 30.6575 244.417 30.275 246.577 30.275C249.847 30.275 252.51 31.0175 254.565 32.5025C256.62 33.9725 258.082 36.2825 258.952 39.4325L251.302 40.805C250.792 39.56 250.117 38.5775 249.277 37.8575C248.437 37.1375 247.402 36.7775 246.172 36.7775C245.002 36.7775 243.945 37.1525 243 37.9025C242.07 38.6525 241.335 39.7175 240.795 41.0975C240.255 42.4775 239.985 44.1275 239.985 46.0475C239.985 47.9525 240.255 49.6025 240.795 50.9975C241.335 52.3775 242.07 53.4425 243 54.1925C243.945 54.9425 245.002 55.3175 246.172 55.3175C247.327 55.3175 248.355 55.0775 249.255 54.5975C250.17 54.1025 250.882 53.4425 251.392 52.6175C251.917 51.7775 252.18 50.855 252.18 49.85H253.44C253.44 52.31 253.147 54.44 252.562 56.24C251.977 58.04 251.1 59.4275 249.93 60.4025C248.76 61.3775 247.282 61.865 245.497 61.865ZM253.08 61.145L252.18 54.935V49.58L246.172 49.535V45.125H259.02V61.145H253.08Z" fill="#8A6C6A"/>
<path d="M51.9138 61.145V30.95H64.9863C67.4313 30.95 69.4563 31.31 71.0613 32.03C72.6663 32.735 73.8663 33.7025 74.6613 34.9325C75.4713 36.1475 75.8763 37.5275 75.8763 39.0725C75.8763 40.7375 75.3963 42.1475 74.4363 43.3025C73.4913 44.4575 72.2463 45.2975 70.7013 45.8225C71.7363 46.0925 72.6813 46.505 73.5363 47.06C74.3913 47.615 75.0738 48.35 75.5838 49.265C76.1088 50.165 76.3713 51.2825 76.3713 52.6175C76.3713 53.5025 76.2063 54.44 75.8763 55.43C75.5463 56.42 74.9688 57.35 74.1438 58.22C73.3188 59.075 72.1713 59.78 70.7013 60.335C69.2313 60.875 67.3563 61.145 65.0763 61.145H51.9138ZM59.1138 54.845H64.8513C66.0663 54.845 66.9888 54.62 67.6188 54.17C68.2488 53.705 68.5638 53.0375 68.5638 52.1675C68.5638 51.2975 68.2638 50.6 67.6638 50.075C67.0788 49.55 66.1413 49.2875 64.8513 49.2875H59.1138V54.845ZM59.1138 37.1825V42.9425H64.6713C66.0513 42.9425 67.0338 42.68 67.6188 42.155C68.2038 41.63 68.4963 40.9475 68.4963 40.1075C68.4963 39.2975 68.2038 38.6075 67.6188 38.0375C67.0488 37.4675 66.0813 37.1825 64.7163 37.1825H59.1138ZM82.324 61.145V30.95H94.114C97.894 30.95 100.826 31.82 102.911 33.56C105.011 35.285 106.061 37.6025 106.061 40.5125C106.061 43.3625 105.011 45.65 102.911 47.375C100.826 49.085 97.894 49.94 94.114 49.94H89.524V61.145H82.324ZM98.074 61.145L90.7165 46.565H98.3215L107.501 61.145H98.074ZM89.524 45.26H93.304C95.089 45.26 96.424 44.8925 97.309 44.1575C98.209 43.4075 98.659 42.455 98.659 41.3C98.659 40.1 98.2765 39.1175 97.5115 38.3525C96.7615 37.5725 95.629 37.1825 94.114 37.1825H89.524V45.26ZM112.689 61.145V30.95H132.872V37.1825H119.889V42.9875H132.062V49.2425H119.889V54.845H132.872V61.145H112.689ZM136.755 30.95H144.765L151.538 54.8H149.873L156.285 31.85H161.145L168.21 54.26H166.748L173.138 30.95H181.305L171.225 61.145H163.643L158.783 45.935H159.098L154.463 61.145H146.903L136.755 30.95ZM185.376 61.145V30.95H192.576V61.145H185.376ZM200.094 30.95H207.609L219.737 49.22H219.242V30.95H226.442V61.145H219.489L206.102 41.075H207.294V61.145H200.094V30.95ZM245.497 61.865C242.962 61.865 240.69 61.19 238.68 59.84C236.685 58.49 235.102 56.63 233.932 54.26C232.777 51.875 232.2 49.1375 232.2 46.0475C232.2 43.7225 232.537 41.6 233.212 39.68C233.902 37.745 234.877 36.08 236.137 34.685C237.412 33.275 238.927 32.1875 240.682 31.4225C242.452 30.6575 244.417 30.275 246.577 30.275C249.847 30.275 252.51 31.0175 254.565 32.5025C256.62 33.9725 258.082 36.2825 258.952 39.4325L251.302 40.805C250.792 39.56 250.117 38.5775 249.277 37.8575C248.437 37.1375 247.402 36.7775 246.172 36.7775C245.002 36.7775 243.945 37.1525 243 37.9025C242.07 38.6525 241.335 39.7175 240.795 41.0975C240.255 42.4775 239.985 44.1275 239.985 46.0475C239.985 47.9525 240.255 49.6025 240.795 50.9975C241.335 52.3775 242.07 53.4425 243 54.1925C243.945 54.9425 245.002 55.3175 246.172 55.3175C247.327 55.3175 248.355 55.0775 249.255 54.5975C250.17 54.1025 250.882 53.4425 251.392 52.6175C251.917 51.7775 252.18 50.855 252.18 49.85H253.44C253.44 52.31 253.147 54.44 252.562 56.24C251.977 58.04 251.1 59.4275 249.93 60.4025C248.76 61.3775 247.282 61.865 245.497 61.865ZM253.08 61.145L252.18 54.935V49.58L246.172 49.535V45.125H259.02V61.145H253.08Z" fill="#F9EFE0"/>
<rect y="14" width="454" height="97.2663" rx="5" fill="#382C2B"/>
<rect x="31.748" y="111.231" width="390.504" height="112.146" fill="#382C2B"/>
<rect x="6.34961" y="223.046" width="439.713" height="27.9538" rx="1" fill="#382C2B"/>
<path d="M35.9138 75.145V44.95H48.9863C51.4313 44.95 53.4563 45.31 55.0613 46.03C56.6663 46.735 57.8663 47.7025 58.6613 48.9325C59.4713 50.1475 59.8763 51.5275 59.8763 53.0725C59.8763 54.7375 59.3963 56.1475 58.4363 57.3025C57.4913 58.4575 56.2463 59.2975 54.7013 59.8225C55.7363 60.0925 56.6813 60.505 57.5363 61.06C58.3913 61.615 59.0738 62.35 59.5838 63.265C60.1088 64.165 60.3713 65.2825 60.3713 66.6175C60.3713 67.5025 60.2063 68.44 59.8763 69.43C59.5463 70.42 58.9688 71.35 58.1438 72.22C57.3188 73.075 56.1713 73.78 54.7013 74.335C53.2313 74.875 51.3563 75.145 49.0763 75.145H35.9138ZM43.1138 68.845H48.8513C50.0663 68.845 50.9888 68.62 51.6188 68.17C52.2488 67.705 52.5638 67.0375 52.5638 66.1675C52.5638 65.2975 52.2638 64.6 51.6638 64.075C51.0788 63.55 50.1413 63.2875 48.8513 63.2875H43.1138V68.845ZM43.1138 51.1825V56.9425H48.6713C50.0513 56.9425 51.0338 56.68 51.6188 56.155C52.2038 55.63 52.4963 54.9475 52.4963 54.1075C52.4963 53.2975 52.2038 52.6075 51.6188 52.0375C51.0488 51.4675 50.0813 51.1825 48.7163 51.1825H43.1138ZM66.324 75.145V44.95H78.114C81.894 44.95 84.8265 45.82 86.9115 47.56C89.0115 49.285 90.0615 51.6025 90.0615 54.5125C90.0615 57.3625 89.0115 59.65 86.9115 61.375C84.8265 63.085 81.894 63.94 78.114 63.94H73.524V75.145H66.324ZM82.074 75.145L74.7165 60.565H82.3215L91.5015 75.145H82.074ZM73.524 59.26H77.304C79.089 59.26 80.424 58.8925 81.309 58.1575C82.209 57.4075 82.659 56.455 82.659 55.3C82.659 54.1 82.2765 53.1175 81.5115 52.3525C80.7615 51.5725 79.629 51.1825 78.114 51.1825H73.524V59.26ZM96.6891 75.145V44.95H116.872V51.1825H103.889V56.9875H116.062V63.2425H103.889V68.845H116.872V75.145H96.6891ZM120.755 44.95H128.765L135.538 68.8H133.873L140.285 45.85H145.145L152.21 68.26H150.748L157.138 44.95H165.305L155.225 75.145H147.643L142.783 59.935H143.098L138.463 75.145H130.903L120.755 44.95ZM169.376 75.145V44.95H176.576V75.145H169.376ZM184.094 44.95H191.609L203.737 63.22H203.242V44.95H210.442V75.145H203.489L190.102 55.075H191.294V75.145H184.094V44.95ZM229.497 75.865C226.962 75.865 224.69 75.19 222.68 73.84C220.685 72.49 219.102 70.63 217.932 68.26C216.777 65.875 216.2 63.1375 216.2 60.0475C216.2 57.7225 216.537 55.6 217.212 53.68C217.902 51.745 218.877 50.08 220.137 48.685C221.412 47.275 222.927 46.1875 224.682 45.4225C226.452 44.6575 228.417 44.275 230.577 44.275C233.847 44.275 236.51 45.0175 238.565 46.5025C240.62 47.9725 242.082 50.2825 242.952 53.4325L235.302 54.805C234.792 53.56 234.117 52.5775 233.277 51.8575C232.437 51.1375 231.402 50.7775 230.172 50.7775C229.002 50.7775 227.945 51.1525 227 51.9025C226.07 52.6525 225.335 53.7175 224.795 55.0975C224.255 56.4775 223.985 58.1275 223.985 60.0475C223.985 61.9525 224.255 63.6025 224.795 64.9975C225.335 66.3775 226.07 67.4425 227 68.1925C227.945 68.9425 229.002 69.3175 230.172 69.3175C231.327 69.3175 232.355 69.0775 233.255 68.5975C234.17 68.1025 234.882 67.4425 235.392 66.6175C235.917 65.7775 236.18 64.855 236.18 63.85H237.44C237.44 66.31 237.147 68.44 236.562 70.24C235.977 72.04 235.1 73.4275 233.93 74.4025C232.76 75.3775 231.282 75.865 229.497 75.865ZM237.08 75.145L236.18 68.935V63.58L230.172 63.535V59.125H243.02V75.145H237.08Z" fill="#8A6C6A"/>
<path d="M35.9138 75.145V44.95H48.9863C51.4313 44.95 53.4563 45.31 55.0613 46.03C56.6663 46.735 57.8663 47.7025 58.6613 48.9325C59.4713 50.1475 59.8763 51.5275 59.8763 53.0725C59.8763 54.7375 59.3963 56.1475 58.4363 57.3025C57.4913 58.4575 56.2463 59.2975 54.7013 59.8225C55.7363 60.0925 56.6813 60.505 57.5363 61.06C58.3913 61.615 59.0738 62.35 59.5838 63.265C60.1088 64.165 60.3713 65.2825 60.3713 66.6175C60.3713 67.5025 60.2063 68.44 59.8763 69.43C59.5463 70.42 58.9688 71.35 58.1438 72.22C57.3188 73.075 56.1713 73.78 54.7013 74.335C53.2313 74.875 51.3563 75.145 49.0763 75.145H35.9138ZM43.1138 68.845H48.8513C50.0663 68.845 50.9888 68.62 51.6188 68.17C52.2488 67.705 52.5638 67.0375 52.5638 66.1675C52.5638 65.2975 52.2638 64.6 51.6638 64.075C51.0788 63.55 50.1413 63.2875 48.8513 63.2875H43.1138V68.845ZM43.1138 51.1825V56.9425H48.6713C50.0513 56.9425 51.0338 56.68 51.6188 56.155C52.2038 55.63 52.4963 54.9475 52.4963 54.1075C52.4963 53.2975 52.2038 52.6075 51.6188 52.0375C51.0488 51.4675 50.0813 51.1825 48.7163 51.1825H43.1138ZM66.324 75.145V44.95H78.114C81.894 44.95 84.8265 45.82 86.9115 47.56C89.0115 49.285 90.0615 51.6025 90.0615 54.5125C90.0615 57.3625 89.0115 59.65 86.9115 61.375C84.8265 63.085 81.894 63.94 78.114 63.94H73.524V75.145H66.324ZM82.074 75.145L74.7165 60.565H82.3215L91.5015 75.145H82.074ZM73.524 59.26H77.304C79.089 59.26 80.424 58.8925 81.309 58.1575C82.209 57.4075 82.659 56.455 82.659 55.3C82.659 54.1 82.2765 53.1175 81.5115 52.3525C80.7615 51.5725 79.629 51.1825 78.114 51.1825H73.524V59.26ZM96.6891 75.145V44.95H116.872V51.1825H103.889V56.9875H116.062V63.2425H103.889V68.845H116.872V75.145H96.6891ZM120.755 44.95H128.765L135.538 68.8H133.873L140.285 45.85H145.145L152.21 68.26H150.748L157.138 44.95H165.305L155.225 75.145H147.643L142.783 59.935H143.098L138.463 75.145H130.903L120.755 44.95ZM169.376 75.145V44.95H176.576V75.145H169.376ZM184.094 44.95H191.609L203.737 63.22H203.242V44.95H210.442V75.145H203.489L190.102 55.075H191.294V75.145H184.094V44.95ZM229.497 75.865C226.962 75.865 224.69 75.19 222.68 73.84C220.685 72.49 219.102 70.63 217.932 68.26C216.777 65.875 216.2 63.1375 216.2 60.0475C216.2 57.7225 216.537 55.6 217.212 53.68C217.902 51.745 218.877 50.08 220.137 48.685C221.412 47.275 222.927 46.1875 224.682 45.4225C226.452 44.6575 228.417 44.275 230.577 44.275C233.847 44.275 236.51 45.0175 238.565 46.5025C240.62 47.9725 242.082 50.2825 242.952 53.4325L235.302 54.805C234.792 53.56 234.117 52.5775 233.277 51.8575C232.437 51.1375 231.402 50.7775 230.172 50.7775C229.002 50.7775 227.945 51.1525 227 51.9025C226.07 52.6525 225.335 53.7175 224.795 55.0975C224.255 56.4775 223.985 58.1275 223.985 60.0475C223.985 61.9525 224.255 63.6025 224.795 64.9975C225.335 66.3775 226.07 67.4425 227 68.1925C227.945 68.9425 229.002 69.3175 230.172 69.3175C231.327 69.3175 232.355 69.0775 233.255 68.5975C234.17 68.1025 234.882 67.4425 235.392 66.6175C235.917 65.7775 236.18 64.855 236.18 63.85H237.44C237.44 66.31 237.147 68.44 236.562 70.24C235.977 72.04 235.1 73.4275 233.93 74.4025C232.76 75.3775 231.282 75.865 229.497 75.865ZM237.08 75.145L236.18 68.935V63.58L230.172 63.535V59.125H243.02V75.145H237.08Z" fill="#8A6C6A"/>
<path d="M35.9138 75.145V44.95H48.9863C51.4313 44.95 53.4563 45.31 55.0613 46.03C56.6663 46.735 57.8663 47.7025 58.6613 48.9325C59.4713 50.1475 59.8763 51.5275 59.8763 53.0725C59.8763 54.7375 59.3963 56.1475 58.4363 57.3025C57.4913 58.4575 56.2463 59.2975 54.7013 59.8225C55.7363 60.0925 56.6813 60.505 57.5363 61.06C58.3913 61.615 59.0738 62.35 59.5838 63.265C60.1088 64.165 60.3713 65.2825 60.3713 66.6175C60.3713 67.5025 60.2063 68.44 59.8763 69.43C59.5463 70.42 58.9688 71.35 58.1438 72.22C57.3188 73.075 56.1713 73.78 54.7013 74.335C53.2313 74.875 51.3563 75.145 49.0763 75.145H35.9138ZM43.1138 68.845H48.8513C50.0663 68.845 50.9888 68.62 51.6188 68.17C52.2488 67.705 52.5638 67.0375 52.5638 66.1675C52.5638 65.2975 52.2638 64.6 51.6638 64.075C51.0788 63.55 50.1413 63.2875 48.8513 63.2875H43.1138V68.845ZM43.1138 51.1825V56.9425H48.6713C50.0513 56.9425 51.0338 56.68 51.6188 56.155C52.2038 55.63 52.4963 54.9475 52.4963 54.1075C52.4963 53.2975 52.2038 52.6075 51.6188 52.0375C51.0488 51.4675 50.0813 51.1825 48.7163 51.1825H43.1138ZM66.324 75.145V44.95H78.114C81.894 44.95 84.8265 45.82 86.9115 47.56C89.0115 49.285 90.0615 51.6025 90.0615 54.5125C90.0615 57.3625 89.0115 59.65 86.9115 61.375C84.8265 63.085 81.894 63.94 78.114 63.94H73.524V75.145H66.324ZM82.074 75.145L74.7165 60.565H82.3215L91.5015 75.145H82.074ZM73.524 59.26H77.304C79.089 59.26 80.424 58.8925 81.309 58.1575C82.209 57.4075 82.659 56.455 82.659 55.3C82.659 54.1 82.2765 53.1175 81.5115 52.3525C80.7615 51.5725 79.629 51.1825 78.114 51.1825H73.524V59.26ZM96.6891 75.145V44.95H116.872V51.1825H103.889V56.9875H116.062V63.2425H103.889V68.845H116.872V75.145H96.6891ZM120.755 44.95H128.765L135.538 68.8H133.873L140.285 45.85H145.145L152.21 68.26H150.748L157.138 44.95H165.305L155.225 75.145H147.643L142.783 59.935H143.098L138.463 75.145H130.903L120.755 44.95ZM169.376 75.145V44.95H176.576V75.145H169.376ZM184.094 44.95H191.609L203.737 63.22H203.242V44.95H210.442V75.145H203.489L190.102 55.075H191.294V75.145H184.094V44.95ZM229.497 75.865C226.962 75.865 224.69 75.19 222.68 73.84C220.685 72.49 219.102 70.63 217.932 68.26C216.777 65.875 216.2 63.1375 216.2 60.0475C216.2 57.7225 216.537 55.6 217.212 53.68C217.902 51.745 218.877 50.08 220.137 48.685C221.412 47.275 222.927 46.1875 224.682 45.4225C226.452 44.6575 228.417 44.275 230.577 44.275C233.847 44.275 236.51 45.0175 238.565 46.5025C240.62 47.9725 242.082 50.2825 242.952 53.4325L235.302 54.805C234.792 53.56 234.117 52.5775 233.277 51.8575C232.437 51.1375 231.402 50.7775 230.172 50.7775C229.002 50.7775 227.945 51.1525 227 51.9025C226.07 52.6525 225.335 53.7175 224.795 55.0975C224.255 56.4775 223.985 58.1275 223.985 60.0475C223.985 61.9525 224.255 63.6025 224.795 64.9975C225.335 66.3775 226.07 67.4425 227 68.1925C227.945 68.9425 229.002 69.3175 230.172 69.3175C231.327 69.3175 232.355 69.0775 233.255 68.5975C234.17 68.1025 234.882 67.4425 235.392 66.6175C235.917 65.7775 236.18 64.855 236.18 63.85H237.44C237.44 66.31 237.147 68.44 236.562 70.24C235.977 72.04 235.1 73.4275 233.93 74.4025C232.76 75.3775 231.282 75.865 229.497 75.865ZM237.08 75.145L236.18 68.935V63.58L230.172 63.535V59.125H243.02V75.145H237.08Z" fill="#F9EFE0"/>
<path d="M73.1125 128V111.225H84.05V114.687H77.1125V117.975H83.325V121.387H77.1125V128H73.1125ZM87.3703 128V115.612H91.3703V128H87.3703ZM90.5203 122.75C90.5203 121.075 90.7328 119.7 91.1578 118.625C91.5828 117.55 92.1203 116.754 92.7703 116.237C93.4203 115.721 94.0828 115.462 94.7578 115.462C94.8911 115.462 95.0245 115.471 95.1578 115.487C95.2911 115.496 95.4161 115.512 95.5328 115.537L95.5703 119.562C95.362 119.537 95.1495 119.521 94.9328 119.512C94.7161 119.496 94.512 119.487 94.3203 119.487C93.737 119.487 93.2203 119.596 92.7703 119.812C92.3286 120.029 91.9828 120.375 91.7328 120.85C91.4911 121.325 91.3703 121.958 91.3703 122.75H90.5203ZM103.24 128.4C102.099 128.4 101.049 128.167 100.09 127.7C99.1404 127.225 98.3779 126.508 97.8029 125.55C97.2363 124.583 96.9529 123.358 96.9529 121.875C96.9529 120.342 97.2363 119.092 97.8029 118.125C98.3779 117.158 99.1404 116.446 100.09 115.987C101.049 115.521 102.099 115.287 103.24 115.287C104.357 115.287 105.386 115.521 106.328 115.987C107.27 116.446 108.024 117.158 108.59 118.125C109.165 119.092 109.453 120.342 109.453 121.875C109.453 123.358 109.165 124.583 108.59 125.55C108.024 126.508 107.27 127.225 106.328 127.7C105.386 128.167 104.357 128.4 103.24 128.4ZM103.09 124.912C103.474 124.912 103.845 124.812 104.203 124.612C104.57 124.412 104.874 124.092 105.115 123.65C105.357 123.2 105.478 122.608 105.478 121.875C105.478 120.733 105.274 119.929 104.865 119.462C104.457 118.996 103.965 118.762 103.39 118.762C103.007 118.762 102.624 118.862 102.24 119.062C101.865 119.262 101.553 119.592 101.303 120.05C101.061 120.5 100.94 121.108 100.94 121.875C100.94 122.983 101.153 123.767 101.578 124.225C102.011 124.683 102.515 124.912 103.09 124.912ZM128.801 128V120.825C128.801 120.175 128.642 119.696 128.326 119.387C128.017 119.071 127.63 118.912 127.163 118.912C126.48 118.912 125.922 119.208 125.488 119.8C125.055 120.383 124.838 121.387 124.838 122.812H123.263C123.263 121.337 123.397 120.117 123.663 119.15C123.93 118.175 124.297 117.408 124.763 116.85C125.23 116.283 125.763 115.883 126.363 115.65C126.972 115.408 127.617 115.287 128.301 115.287C129.351 115.287 130.209 115.525 130.876 116C131.551 116.475 132.047 117.129 132.363 117.962C132.688 118.796 132.851 119.75 132.851 120.825V128H128.801ZM112.663 128V115.687H116.188L116.613 117.425C117.038 116.683 117.567 116.142 118.201 115.8C118.842 115.458 119.538 115.287 120.288 115.287C121.347 115.287 122.209 115.525 122.876 116C123.551 116.475 124.047 117.129 124.363 117.962C124.68 118.796 124.838 119.75 124.838 120.825V128H120.813V120.825C120.813 120.175 120.655 119.696 120.338 119.387C120.022 119.071 119.638 118.912 119.188 118.912C118.73 118.912 118.309 119.042 117.926 119.3C117.542 119.558 117.234 119.975 117.001 120.55C116.776 121.117 116.663 121.871 116.663 122.812V128H112.663ZM148.499 128.4C147.424 128.4 146.424 128.129 145.499 127.588C144.582 127.046 143.84 126.283 143.274 125.3C142.715 124.317 142.436 123.167 142.436 121.85C142.436 120.408 142.715 119.204 143.274 118.237C143.84 117.262 144.582 116.529 145.499 116.037C146.424 115.537 147.424 115.287 148.499 115.287C149.407 115.287 150.199 115.442 150.874 115.75C151.557 116.058 152.124 116.462 152.574 116.962C153.024 117.462 153.357 118.012 153.574 118.612C153.799 119.212 153.911 119.8 153.911 120.375L149.911 120.337C149.853 119.979 149.707 119.654 149.474 119.362C149.249 119.062 148.915 118.912 148.474 118.912C148.124 118.912 147.79 119.004 147.474 119.187C147.165 119.362 146.911 119.662 146.711 120.087C146.52 120.512 146.424 121.1 146.424 121.85C146.424 122.583 146.52 123.162 146.711 123.587C146.911 124.012 147.165 124.312 147.474 124.487C147.79 124.662 148.124 124.75 148.474 124.75C149.04 124.75 149.42 124.621 149.611 124.362C149.811 124.096 149.911 123.762 149.911 123.362H153.911C153.911 124.246 153.715 125.071 153.324 125.837C152.932 126.604 152.336 127.225 151.536 127.7C150.745 128.167 149.732 128.4 148.499 128.4ZM162.322 128.4C161.181 128.4 160.131 128.167 159.172 127.7C158.222 127.225 157.46 126.508 156.885 125.55C156.318 124.583 156.035 123.358 156.035 121.875C156.035 120.342 156.318 119.092 156.885 118.125C157.46 117.158 158.222 116.446 159.172 115.987C160.131 115.521 161.181 115.287 162.322 115.287C163.439 115.287 164.468 115.521 165.41 115.987C166.352 116.446 167.106 117.158 167.672 118.125C168.247 119.092 168.535 120.342 168.535 121.875C168.535 123.358 168.247 124.583 167.672 125.55C167.106 126.508 166.352 127.225 165.41 127.7C164.468 128.167 163.439 128.4 162.322 128.4ZM162.172 124.912C162.556 124.912 162.927 124.812 163.285 124.612C163.652 124.412 163.956 124.092 164.197 123.65C164.439 123.2 164.56 122.608 164.56 121.875C164.56 120.733 164.356 119.929 163.947 119.462C163.539 118.996 163.047 118.762 162.472 118.762C162.089 118.762 161.706 118.862 161.322 119.062C160.947 119.262 160.635 119.592 160.385 120.05C160.143 120.5 160.022 121.108 160.022 121.875C160.022 122.983 160.235 123.767 160.66 124.225C161.093 124.683 161.597 124.912 162.172 124.912ZM172.495 128V114.612C172.495 113.646 172.687 112.862 173.07 112.262C173.454 111.662 173.954 111.225 174.57 110.95C175.187 110.667 175.837 110.525 176.52 110.525C176.987 110.525 177.479 110.558 177.995 110.625C178.512 110.683 179.008 110.746 179.483 110.812L178.695 113.85C178.529 113.808 178.345 113.767 178.145 113.725C177.954 113.683 177.758 113.662 177.558 113.662C177.358 113.662 177.183 113.7 177.033 113.775C176.883 113.85 176.766 113.967 176.683 114.125C176.599 114.275 176.558 114.462 176.558 114.687V128H172.495ZM170.858 118.275V115.687H178.52V118.275H170.858ZM182.334 128V114.612C182.334 113.646 182.526 112.862 182.909 112.262C183.293 111.662 183.793 111.225 184.409 110.95C185.026 110.667 185.676 110.525 186.359 110.525C186.826 110.525 187.318 110.558 187.834 110.625C188.351 110.683 188.847 110.746 189.322 110.812L188.534 113.85C188.368 113.808 188.184 113.767 187.984 113.725C187.793 113.683 187.597 113.662 187.397 113.662C187.197 113.662 187.022 113.7 186.872 113.775C186.722 113.85 186.605 113.967 186.522 114.125C186.438 114.275 186.397 114.462 186.397 114.687V128H182.334ZM180.697 118.275V115.687H188.359V118.275H180.697ZM196.348 128.4C195.315 128.4 194.344 128.133 193.436 127.6C192.527 127.067 191.79 126.304 191.223 125.312C190.665 124.321 190.386 123.146 190.386 121.787C190.386 120.429 190.665 119.267 191.223 118.3C191.781 117.325 192.515 116.579 193.423 116.062C194.331 115.546 195.306 115.287 196.348 115.287C197.381 115.287 198.281 115.496 199.048 115.912C199.815 116.321 200.431 116.875 200.898 117.575C201.373 118.275 201.681 119.067 201.823 119.95C201.973 120.825 201.944 121.729 201.736 122.662H193.548V120.637H198.811L198.236 121.012C198.261 120.721 198.248 120.425 198.198 120.125C198.156 119.825 198.069 119.55 197.936 119.3C197.802 119.042 197.611 118.837 197.361 118.687C197.119 118.529 196.806 118.45 196.423 118.45C195.998 118.45 195.627 118.554 195.311 118.762C195.002 118.962 194.761 119.258 194.586 119.65C194.419 120.033 194.336 120.504 194.336 121.062V122.637C194.336 123.162 194.411 123.617 194.561 124C194.711 124.383 194.931 124.683 195.223 124.9C195.523 125.108 195.898 125.212 196.348 125.212C196.715 125.212 197.036 125.137 197.311 124.987C197.586 124.837 197.777 124.6 197.886 124.275H201.861C201.736 125.042 201.427 125.737 200.936 126.362C200.452 126.987 199.819 127.483 199.036 127.85C198.261 128.217 197.365 128.4 196.348 128.4ZM210.044 128.4C209.011 128.4 208.04 128.133 207.132 127.6C206.224 127.067 205.486 126.304 204.919 125.312C204.361 124.321 204.082 123.146 204.082 121.787C204.082 120.429 204.361 119.267 204.919 118.3C205.478 117.325 206.211 116.579 207.119 116.062C208.028 115.546 209.003 115.287 210.044 115.287C211.078 115.287 211.978 115.496 212.744 115.912C213.511 116.321 214.128 116.875 214.594 117.575C215.069 118.275 215.378 119.067 215.519 119.95C215.669 120.825 215.64 121.729 215.432 122.662H207.244V120.637H212.507L211.932 121.012C211.957 120.721 211.944 120.425 211.894 120.125C211.853 119.825 211.765 119.55 211.632 119.3C211.499 119.042 211.307 118.837 211.057 118.687C210.815 118.529 210.503 118.45 210.119 118.45C209.694 118.45 209.324 118.554 209.007 118.762C208.699 118.962 208.457 119.258 208.282 119.65C208.115 120.033 208.032 120.504 208.032 121.062V122.637C208.032 123.162 208.107 123.617 208.257 124C208.407 124.383 208.628 124.683 208.919 124.9C209.219 125.108 209.594 125.212 210.044 125.212C210.411 125.212 210.732 125.137 211.007 124.987C211.282 124.837 211.474 124.6 211.582 124.275H215.557C215.432 125.042 215.124 125.737 214.632 126.362C214.149 126.987 213.515 127.483 212.732 127.85C211.957 128.217 211.061 128.4 210.044 128.4ZM230.704 134.413C229.137 134.413 227.812 134.2 226.729 133.775C225.654 133.358 224.837 132.813 224.279 132.138C223.729 131.471 223.454 130.763 223.454 130.013C223.454 129.221 223.737 128.6 224.304 128.15C224.871 127.7 225.562 127.475 226.379 127.475L229.666 128.412C228.941 128.412 228.383 128.529 227.991 128.763C227.6 129.004 227.404 129.346 227.404 129.788C227.404 130.288 227.712 130.654 228.329 130.888C228.954 131.121 229.746 131.238 230.704 131.238C231.379 131.238 231.954 131.129 232.429 130.913C232.904 130.704 233.262 130.433 233.504 130.1C233.754 129.767 233.879 129.421 233.879 129.063C233.879 128.846 233.816 128.683 233.691 128.575C233.575 128.467 233.387 128.412 233.129 128.412H229.666C228.841 128.412 228.05 128.271 227.291 127.987C226.533 127.704 225.912 127.317 225.429 126.825C224.954 126.325 224.716 125.762 224.716 125.137C224.716 124.621 224.858 124.167 225.141 123.775C225.425 123.383 225.825 123.079 226.341 122.862C226.866 122.646 227.475 122.537 228.166 122.537L229.316 123.775C229.083 123.775 228.871 123.812 228.679 123.887C228.496 123.962 228.35 124.075 228.241 124.225C228.133 124.367 228.079 124.546 228.079 124.762C228.079 125.046 228.204 125.267 228.454 125.425C228.704 125.575 229.108 125.65 229.666 125.65H233.129C234.596 125.65 235.746 125.887 236.579 126.362C237.412 126.829 237.829 127.629 237.829 128.763C237.829 129.729 237.533 130.642 236.941 131.5C236.35 132.367 235.521 133.067 234.454 133.6C233.387 134.142 232.137 134.413 230.704 134.413ZM230.641 123.987C229.641 123.987 228.712 123.812 227.854 123.462C227.004 123.104 226.316 122.604 225.791 121.962C225.266 121.312 225.004 120.546 225.004 119.662C225.004 118.754 225.266 117.975 225.791 117.325C226.316 116.667 227.004 116.162 227.854 115.812C228.712 115.462 229.641 115.287 230.641 115.287C231.625 115.287 232.546 115.462 233.404 115.812C234.262 116.162 234.958 116.667 235.491 117.325C236.025 117.975 236.291 118.754 236.291 119.662C236.291 120.546 236.025 121.312 235.491 121.962C234.958 122.604 234.262 123.104 233.404 123.462C232.546 123.812 231.625 123.987 230.641 123.987ZM230.691 121.25C231.3 121.25 231.729 121.096 231.979 120.787C232.237 120.479 232.366 120.104 232.366 119.662C232.366 119.146 232.237 118.742 231.979 118.45C231.721 118.15 231.275 118 230.641 118C230.066 118 229.641 118.15 229.366 118.45C229.091 118.742 228.954 119.146 228.954 119.662C228.954 120.104 229.091 120.479 229.366 120.787C229.65 121.096 230.091 121.25 230.691 121.25ZM235.341 117.287L233.541 116.1C233.541 115.342 233.741 114.683 234.141 114.125C234.541 113.567 235.054 113.133 235.679 112.825C236.304 112.517 236.946 112.362 237.604 112.362L237.454 116.137C236.762 116.137 236.237 116.233 235.879 116.425C235.521 116.608 235.341 116.896 235.341 117.287ZM240.569 128V115.612H244.569V128H240.569ZM243.719 122.75C243.719 121.075 243.931 119.7 244.356 118.625C244.781 117.55 245.319 116.754 245.969 116.237C246.619 115.721 247.281 115.462 247.956 115.462C248.089 115.462 248.223 115.471 248.356 115.487C248.489 115.496 248.614 115.512 248.731 115.537L248.769 119.562C248.56 119.537 248.348 119.521 248.131 119.512C247.914 119.496 247.71 119.487 247.519 119.487C246.935 119.487 246.419 119.596 245.969 119.812C245.527 120.029 245.181 120.375 244.931 120.85C244.689 121.325 244.569 121.958 244.569 122.75H243.719ZM256.439 128.4C255.297 128.4 254.247 128.167 253.289 127.7C252.339 127.225 251.576 126.508 251.001 125.55C250.435 124.583 250.151 123.358 250.151 121.875C250.151 120.342 250.435 119.092 251.001 118.125C251.576 117.158 252.339 116.446 253.289 115.987C254.247 115.521 255.297 115.287 256.439 115.287C257.555 115.287 258.585 115.521 259.526 115.987C260.468 116.446 261.222 117.158 261.789 118.125C262.364 119.092 262.651 120.342 262.651 121.875C262.651 123.358 262.364 124.583 261.789 125.55C261.222 126.508 260.468 127.225 259.526 127.7C258.585 128.167 257.555 128.4 256.439 128.4ZM256.289 124.912C256.672 124.912 257.043 124.812 257.401 124.612C257.768 124.412 258.072 124.092 258.314 123.65C258.555 123.2 258.676 122.608 258.676 121.875C258.676 120.733 258.472 119.929 258.064 119.462C257.655 118.996 257.164 118.762 256.589 118.762C256.205 118.762 255.822 118.862 255.439 119.062C255.064 119.262 254.751 119.592 254.501 120.05C254.26 120.5 254.139 121.108 254.139 121.875C254.139 122.983 254.351 123.767 254.776 124.225C255.21 124.683 255.714 124.912 256.289 124.912ZM273.887 115.612H277.887V128H273.887V115.612ZM265.724 115.612H269.724V123.062C269.724 123.629 269.866 124.05 270.149 124.325C270.441 124.592 270.812 124.725 271.262 124.725C271.67 124.725 272.074 124.625 272.474 124.425C272.882 124.225 273.22 123.883 273.487 123.4C273.753 122.917 273.887 122.246 273.887 121.387H274.762C274.762 123.021 274.574 124.342 274.199 125.35C273.824 126.35 273.312 127.079 272.662 127.537C272.02 127.996 271.291 128.225 270.474 128.225C269.649 128.225 268.874 128.083 268.149 127.8C267.424 127.517 266.837 127.033 266.387 126.35C265.945 125.667 265.724 124.725 265.724 123.525V115.612ZM290.247 128V120.825C290.247 120.175 290.089 119.696 289.772 119.387C289.455 119.071 289.072 118.912 288.622 118.912C288.164 118.912 287.743 119.042 287.359 119.3C286.976 119.558 286.668 119.975 286.434 120.55C286.209 121.117 286.097 121.871 286.097 122.812H284.884C284.884 121.046 285.093 119.608 285.509 118.5C285.934 117.392 286.509 116.579 287.234 116.062C287.968 115.546 288.797 115.287 289.722 115.287C290.78 115.287 291.643 115.525 292.309 116C292.984 116.475 293.48 117.129 293.797 117.962C294.114 118.796 294.272 119.75 294.272 120.825V128H290.247ZM282.097 128V115.687H285.622L286.097 117.725V128H282.097ZM302.873 128.4C301.807 128.4 300.836 128.125 299.961 127.575C299.094 127.017 298.407 126.242 297.898 125.25C297.39 124.25 297.136 123.092 297.136 121.775C297.136 120.475 297.377 119.342 297.861 118.375C298.344 117.4 298.998 116.642 299.823 116.1C300.648 115.558 301.573 115.287 302.598 115.287C303.523 115.287 304.311 115.508 304.961 115.95C305.611 116.383 306.102 117.042 306.436 117.925C306.777 118.8 306.948 119.9 306.948 121.225H305.836C305.836 120.758 305.732 120.354 305.523 120.012C305.323 119.662 305.057 119.392 304.723 119.2C304.39 119.008 304.019 118.912 303.611 118.912C303.086 118.912 302.636 119.037 302.261 119.287C301.894 119.537 301.615 119.879 301.423 120.312C301.232 120.746 301.136 121.233 301.136 121.775C301.136 122.342 301.232 122.85 301.423 123.3C301.623 123.75 301.907 124.104 302.273 124.362C302.64 124.621 303.069 124.75 303.561 124.75C303.952 124.75 304.319 124.642 304.661 124.425C305.011 124.2 305.294 123.904 305.511 123.537C305.727 123.171 305.836 122.771 305.836 122.337H306.948C306.948 123.729 306.757 124.875 306.373 125.775C305.998 126.667 305.498 127.329 304.873 127.762C304.257 128.188 303.59 128.4 302.873 128.4ZM306.623 128L305.836 124.788V110.75H309.886V128H306.623ZM318.866 128.4C317.691 128.4 316.654 128.246 315.754 127.937C314.854 127.621 314.15 127.15 313.641 126.525C313.141 125.892 312.895 125.096 312.904 124.137H316.516C316.533 124.571 316.7 124.871 317.016 125.037C317.341 125.204 317.779 125.287 318.329 125.287C318.662 125.287 318.937 125.246 319.154 125.162C319.37 125.079 319.533 124.971 319.641 124.837C319.75 124.696 319.804 124.546 319.804 124.387C319.804 124.179 319.729 124.012 319.579 123.887C319.429 123.762 319.195 123.637 318.879 123.512L315.891 122.35C315.008 121.983 314.325 121.521 313.841 120.962C313.366 120.396 313.129 119.725 313.129 118.95C313.129 117.858 313.633 116.975 314.641 116.3C315.65 115.625 317.029 115.287 318.779 115.287C320.42 115.287 321.683 115.671 322.566 116.437C323.45 117.204 323.895 118.179 323.904 119.362H320.241C320.241 119.096 320.129 118.867 319.904 118.675C319.679 118.475 319.304 118.375 318.779 118.375C318.345 118.375 318.004 118.446 317.754 118.587C317.504 118.729 317.379 118.917 317.379 119.15C317.379 119.467 317.641 119.717 318.166 119.9L321.566 121.262C322.408 121.596 323.07 122.012 323.554 122.512C324.037 123.012 324.279 123.637 324.279 124.387C324.279 125.071 324.041 125.721 323.566 126.337C323.1 126.946 322.458 127.442 321.641 127.825C320.825 128.208 319.9 128.4 318.866 128.4ZM338.624 128.4C337.841 128.4 337.108 128.258 336.424 127.975C335.749 127.692 335.204 127.25 334.787 126.65C334.379 126.042 334.174 125.262 334.174 124.312V112.575H338.199V124.162C338.199 124.912 338.57 125.287 339.312 125.287C339.545 125.287 339.791 125.262 340.049 125.212C340.316 125.154 340.624 125.062 340.974 124.937L341.562 127.725C341.054 127.908 340.566 128.067 340.099 128.2C339.641 128.333 339.149 128.4 338.624 128.4ZM332.712 118.275V115.687H340.999V118.275H332.712ZM349.676 128.4C348.534 128.4 347.484 128.167 346.526 127.7C345.576 127.225 344.813 126.508 344.238 125.55C343.672 124.583 343.388 123.358 343.388 121.875C343.388 120.342 343.672 119.092 344.238 118.125C344.813 117.158 345.576 116.446 346.526 115.987C347.484 115.521 348.534 115.287 349.676 115.287C350.793 115.287 351.822 115.521 352.763 115.987C353.705 116.446 354.459 117.158 355.026 118.125C355.601 119.092 355.888 120.342 355.888 121.875C355.888 123.358 355.601 124.583 355.026 125.55C354.459 126.508 353.705 127.225 352.763 127.7C351.822 128.167 350.793 128.4 349.676 128.4ZM349.526 124.912C349.909 124.912 350.28 124.812 350.638 124.612C351.005 124.412 351.309 124.092 351.551 123.65C351.793 123.2 351.913 122.608 351.913 121.875C351.913 120.733 351.709 119.929 351.301 119.462C350.893 118.996 350.401 118.762 349.826 118.762C349.443 118.762 349.059 118.862 348.676 119.062C348.301 119.262 347.988 119.592 347.738 120.05C347.497 120.5 347.376 121.108 347.376 121.875C347.376 122.983 347.588 123.767 348.013 124.225C348.447 124.683 348.951 124.912 349.526 124.912ZM81.1875 157L80.675 153.712V149.1C80.675 148.483 80.5625 148.004 80.3375 147.662C80.1125 147.321 79.6333 147.15 78.9 147.15C78.4667 147.15 78.1125 147.217 77.8375 147.35C77.5708 147.475 77.3708 147.646 77.2375 147.862C77.1125 148.071 77.05 148.3 77.05 148.55H72.725C72.725 147.583 72.9542 146.787 73.4125 146.162C73.8708 145.529 74.5583 145.058 75.475 144.75C76.3917 144.442 77.5333 144.287 78.9 144.287C80.0917 144.287 81.1167 144.471 81.975 144.837C82.8417 145.204 83.5083 145.754 83.975 146.487C84.4417 147.221 84.675 148.142 84.675 149.25V157H81.1875ZM77.3125 157.4C76.2125 157.4 75.2833 157.217 74.525 156.85C73.775 156.475 73.2083 155.971 72.825 155.337C72.4417 154.704 72.25 154.004 72.25 153.237C72.25 152.512 72.45 151.887 72.85 151.362C73.25 150.829 73.8417 150.417 74.625 150.125C75.4167 149.833 76.3875 149.687 77.5375 149.687C78.2375 149.687 78.8542 149.725 79.3875 149.8C79.9292 149.875 80.4833 149.967 81.05 150.075V152.325C80.6333 152.233 80.2 152.162 79.75 152.112C79.3083 152.062 78.875 152.037 78.45 152.037C77.8583 152.037 77.3875 152.133 77.0375 152.325C76.6958 152.508 76.525 152.812 76.525 153.237C76.525 153.546 76.6792 153.817 76.9875 154.05C77.2958 154.275 77.7833 154.387 78.45 154.387C79.0167 154.387 79.4625 154.275 79.7875 154.05C80.1125 153.825 80.3417 153.542 80.475 153.2C80.6083 152.858 80.675 152.521 80.675 152.187H81.6125C81.6125 153.137 81.4625 154.008 81.1625 154.8C80.8625 155.592 80.3958 156.225 79.7625 156.7C79.1292 157.167 78.3125 157.4 77.3125 157.4ZM88.6398 157V144.612H92.6398V157H88.6398ZM91.7898 151.75C91.7898 150.075 92.0023 148.7 92.4273 147.625C92.8523 146.55 93.3898 145.754 94.0398 145.237C94.6898 144.721 95.3523 144.462 96.0273 144.462C96.1607 144.462 96.294 144.471 96.4273 144.487C96.5607 144.496 96.6857 144.512 96.8023 144.537L96.8398 148.562C96.6315 148.537 96.419 148.521 96.2023 148.512C95.9857 148.496 95.7815 148.487 95.5898 148.487C95.0065 148.487 94.4898 148.596 94.0398 148.812C93.5982 149.029 93.2523 149.375 93.0023 149.85C92.7607 150.325 92.6398 150.958 92.6398 151.75H91.7898ZM104.51 157.4C103.368 157.4 102.318 157.167 101.36 156.7C100.41 156.225 99.6475 155.508 99.0725 154.55C98.5058 153.583 98.2225 152.358 98.2225 150.875C98.2225 149.342 98.5058 148.092 99.0725 147.125C99.6475 146.158 100.41 145.446 101.36 144.987C102.318 144.521 103.368 144.287 104.51 144.287C105.627 144.287 106.656 144.521 107.597 144.987C108.539 145.446 109.293 146.158 109.86 147.125C110.435 148.092 110.722 149.342 110.722 150.875C110.722 152.358 110.435 153.583 109.86 154.55C109.293 155.508 108.539 156.225 107.597 156.7C106.656 157.167 105.627 157.4 104.51 157.4ZM104.36 153.912C104.743 153.912 105.114 153.812 105.472 153.612C105.839 153.412 106.143 153.092 106.385 152.65C106.627 152.2 106.747 151.608 106.747 150.875C106.747 149.733 106.543 148.929 106.135 148.462C105.727 147.996 105.235 147.762 104.66 147.762C104.277 147.762 103.893 147.862 103.51 148.062C103.135 148.262 102.822 148.592 102.572 149.05C102.331 149.5 102.21 150.108 102.21 150.875C102.21 151.983 102.422 152.767 102.847 153.225C103.281 153.683 103.785 153.912 104.36 153.912ZM130.07 157V149.825C130.07 149.175 129.912 148.696 129.595 148.387C129.287 148.071 128.899 147.912 128.433 147.912C127.749 147.912 127.191 148.208 126.758 148.8C126.324 149.383 126.108 150.387 126.108 151.812H124.533C124.533 150.337 124.666 149.117 124.933 148.15C125.199 147.175 125.566 146.408 126.033 145.85C126.499 145.283 127.033 144.883 127.633 144.65C128.241 144.408 128.887 144.287 129.57 144.287C130.62 144.287 131.479 144.525 132.145 145C132.82 145.475 133.316 146.129 133.633 146.962C133.958 147.796 134.12 148.75 134.12 149.825V157H130.07ZM113.933 157V144.687H117.458L117.883 146.425C118.308 145.683 118.837 145.142 119.47 144.8C120.112 144.458 120.808 144.287 121.558 144.287C122.616 144.287 123.479 144.525 124.145 145C124.82 145.475 125.316 146.129 125.633 146.962C125.949 147.796 126.108 148.75 126.108 149.825V157H122.083V149.825C122.083 149.175 121.924 148.696 121.608 148.387C121.291 148.071 120.908 147.912 120.458 147.912C119.999 147.912 119.579 148.042 119.195 148.3C118.812 148.558 118.504 148.975 118.27 149.55C118.045 150.117 117.933 150.871 117.933 151.812V157H113.933ZM146.08 157L145.568 153.712V149.1C145.568 148.483 145.455 148.004 145.23 147.662C145.005 147.321 144.526 147.15 143.793 147.15C143.359 147.15 143.005 147.217 142.73 147.35C142.463 147.475 142.263 147.646 142.13 147.862C142.005 148.071 141.943 148.3 141.943 148.55H137.618C137.618 147.583 137.847 146.787 138.305 146.162C138.763 145.529 139.451 145.058 140.368 144.75C141.284 144.442 142.426 144.287 143.793 144.287C144.984 144.287 146.009 144.471 146.868 144.837C147.734 145.204 148.401 145.754 148.868 146.487C149.334 147.221 149.568 148.142 149.568 149.25V157H146.08ZM142.205 157.4C141.105 157.4 140.176 157.217 139.418 156.85C138.668 156.475 138.101 155.971 137.718 155.337C137.334 154.704 137.143 154.004 137.143 153.237C137.143 152.512 137.343 151.887 137.743 151.362C138.143 150.829 138.734 150.417 139.518 150.125C140.309 149.833 141.28 149.687 142.43 149.687C143.13 149.687 143.747 149.725 144.28 149.8C144.822 149.875 145.376 149.967 145.943 150.075V152.325C145.526 152.233 145.093 152.162 144.643 152.112C144.201 152.062 143.768 152.037 143.343 152.037C142.751 152.037 142.28 152.133 141.93 152.325C141.588 152.508 141.418 152.812 141.418 153.237C141.418 153.546 141.572 153.817 141.88 154.05C142.188 154.275 142.676 154.387 143.343 154.387C143.909 154.387 144.355 154.275 144.68 154.05C145.005 153.825 145.234 153.542 145.368 153.2C145.501 152.858 145.568 152.521 145.568 152.187H146.505C146.505 153.137 146.355 154.008 146.055 154.8C145.755 155.592 145.288 156.225 144.655 156.7C144.022 157.167 143.205 157.4 142.205 157.4ZM158.082 157.4C157.299 157.4 156.566 157.258 155.882 156.975C155.207 156.692 154.662 156.25 154.245 155.65C153.837 155.042 153.632 154.262 153.632 153.312V141.575H157.657V153.162C157.657 153.912 158.028 154.287 158.77 154.287C159.003 154.287 159.249 154.262 159.507 154.212C159.774 154.154 160.082 154.062 160.432 153.937L161.02 156.725C160.512 156.908 160.024 157.067 159.557 157.2C159.099 157.333 158.607 157.4 158.082 157.4ZM152.17 147.275V144.687H160.457V147.275H152.17ZM166.271 143.1C165.513 143.1 164.926 142.908 164.509 142.525C164.101 142.133 163.896 141.583 163.896 140.875C163.896 140.183 164.101 139.633 164.509 139.225C164.926 138.808 165.513 138.6 166.271 138.6C167.005 138.6 167.584 138.808 168.009 139.225C168.434 139.633 168.646 140.183 168.646 140.875C168.646 141.583 168.434 142.133 168.009 142.525C167.584 142.908 167.005 143.1 166.271 143.1ZM164.271 157V144.612H168.271V157H164.271ZM177.893 157.4C176.818 157.4 175.818 157.129 174.893 156.588C173.977 156.046 173.235 155.283 172.668 154.3C172.11 153.317 171.831 152.167 171.831 150.85C171.831 149.408 172.11 148.204 172.668 147.237C173.235 146.262 173.977 145.529 174.893 145.037C175.818 144.537 176.818 144.287 177.893 144.287C178.802 144.287 179.593 144.442 180.268 144.75C180.952 145.058 181.518 145.462 181.968 145.962C182.418 146.462 182.752 147.012 182.968 147.612C183.193 148.212 183.306 148.8 183.306 149.375L179.306 149.337C179.248 148.979 179.102 148.654 178.868 148.362C178.643 148.062 178.31 147.912 177.868 147.912C177.518 147.912 177.185 148.004 176.868 148.187C176.56 148.362 176.306 148.662 176.106 149.087C175.914 149.512 175.818 150.1 175.818 150.85C175.818 151.583 175.914 152.162 176.106 152.587C176.306 153.012 176.56 153.312 176.868 153.487C177.185 153.662 177.518 153.75 177.868 153.75C178.435 153.75 178.814 153.621 179.006 153.362C179.206 153.096 179.306 152.762 179.306 152.362H183.306C183.306 153.246 183.11 154.071 182.718 154.837C182.327 155.604 181.731 156.225 180.931 156.7C180.139 157.167 179.127 157.4 177.893 157.4ZM197.893 157.4C196.826 157.4 195.855 157.125 194.98 156.575C194.114 156.017 193.426 155.242 192.918 154.25C192.409 153.25 192.155 152.092 192.155 150.775C192.155 149.475 192.397 148.342 192.88 147.375C193.364 146.4 194.018 145.642 194.843 145.1C195.668 144.558 196.593 144.287 197.618 144.287C198.543 144.287 199.33 144.508 199.98 144.95C200.63 145.383 201.122 146.042 201.455 146.925C201.797 147.8 201.968 148.9 201.968 150.225H200.855C200.855 149.758 200.751 149.354 200.543 149.012C200.343 148.662 200.076 148.392 199.743 148.2C199.409 148.008 199.039 147.912 198.63 147.912C198.105 147.912 197.655 148.037 197.28 148.287C196.914 148.537 196.634 148.879 196.443 149.312C196.251 149.746 196.155 150.233 196.155 150.775C196.155 151.342 196.251 151.85 196.443 152.3C196.643 152.75 196.926 153.104 197.293 153.362C197.659 153.621 198.089 153.75 198.58 153.75C198.972 153.75 199.339 153.642 199.68 153.425C200.03 153.2 200.314 152.904 200.53 152.537C200.747 152.171 200.855 151.771 200.855 151.337H201.968C201.968 152.729 201.776 153.875 201.393 154.775C201.018 155.667 200.518 156.329 199.893 156.762C199.276 157.188 198.609 157.4 197.893 157.4ZM201.643 157L200.855 153.788V139.75H204.905V157H201.643ZM209.123 157V144.612H213.123V157H209.123ZM212.273 151.75C212.273 150.075 212.486 148.7 212.911 147.625C213.336 146.55 213.873 145.754 214.523 145.237C215.173 144.721 215.836 144.462 216.511 144.462C216.644 144.462 216.777 144.471 216.911 144.487C217.044 144.496 217.169 144.512 217.286 144.537L217.323 148.562C217.115 148.537 216.902 148.521 216.686 148.512C216.469 148.496 216.265 148.487 216.073 148.487C215.49 148.487 214.973 148.596 214.523 148.812C214.082 149.029 213.736 149.375 213.486 149.85C213.244 150.325 213.123 150.958 213.123 151.75H212.273ZM222.131 143.1C221.373 143.1 220.785 142.908 220.368 142.525C219.96 142.133 219.756 141.583 219.756 140.875C219.756 140.183 219.96 139.633 220.368 139.225C220.785 138.808 221.373 138.6 222.131 138.6C222.864 138.6 223.443 138.808 223.868 139.225C224.293 139.633 224.506 140.183 224.506 140.875C224.506 141.583 224.293 142.133 223.868 142.525C223.443 142.908 222.864 143.1 222.131 143.1ZM220.131 157V144.612H224.131V157H220.131ZM236.878 157V149.825C236.878 149.175 236.719 148.696 236.403 148.387C236.086 148.071 235.703 147.912 235.253 147.912C234.794 147.912 234.374 148.042 233.99 148.3C233.607 148.558 233.299 148.975 233.065 149.55C232.84 150.117 232.728 150.871 232.728 151.812H231.515C231.515 150.046 231.724 148.608 232.14 147.5C232.565 146.392 233.14 145.579 233.865 145.062C234.599 144.546 235.428 144.287 236.353 144.287C237.411 144.287 238.274 144.525 238.94 145C239.615 145.475 240.111 146.129 240.428 146.962C240.744 147.796 240.903 148.75 240.903 149.825V157H236.878ZM228.728 157V144.687H232.253L232.728 146.725V157H228.728ZM244.817 157V139.75H248.817V157H244.817ZM248.317 148.762L252.567 144.687H257.904L248.317 152.837V148.762ZM253.379 157L248.217 149.087L251.879 148.075L258.229 157H253.379ZM265.106 157.4C263.931 157.4 262.894 157.246 261.994 156.937C261.094 156.621 260.39 156.15 259.881 155.525C259.381 154.892 259.136 154.096 259.144 153.137H262.756C262.773 153.571 262.94 153.871 263.256 154.037C263.581 154.204 264.019 154.287 264.569 154.287C264.902 154.287 265.177 154.246 265.394 154.162C265.611 154.079 265.773 153.971 265.881 153.837C265.99 153.696 266.044 153.546 266.044 153.387C266.044 153.179 265.969 153.012 265.819 152.887C265.669 152.762 265.436 152.637 265.119 152.512L262.131 151.35C261.248 150.983 260.565 150.521 260.081 149.962C259.606 149.396 259.369 148.725 259.369 147.95C259.369 146.858 259.873 145.975 260.881 145.3C261.89 144.625 263.269 144.287 265.019 144.287C266.661 144.287 267.923 144.671 268.806 145.437C269.69 146.204 270.136 147.179 270.144 148.362H266.481C266.481 148.096 266.369 147.867 266.144 147.675C265.919 147.475 265.544 147.375 265.019 147.375C264.586 147.375 264.244 147.446 263.994 147.587C263.744 147.729 263.619 147.917 263.619 148.15C263.619 148.467 263.881 148.717 264.406 148.9L267.806 150.262C268.648 150.596 269.311 151.012 269.794 151.512C270.277 152.012 270.519 152.637 270.519 153.387C270.519 154.071 270.281 154.721 269.806 155.337C269.34 155.946 268.698 156.442 267.881 156.825C267.065 157.208 266.14 157.4 265.106 157.4ZM271.901 154.675C271.901 153.933 272.147 153.317 272.639 152.825C273.139 152.333 273.785 152.087 274.576 152.087C275.368 152.087 276.022 152.333 276.539 152.825C277.056 153.317 277.314 153.933 277.314 154.675C277.314 155.417 277.056 156.029 276.539 156.512C276.022 156.988 275.368 157.225 274.576 157.225C273.785 157.225 273.139 156.983 272.639 156.5C272.147 156.017 271.901 155.408 271.901 154.675Z" fill="#F9EFE0"/>
<path d="M284 59C284 61.2091 285.791 63 288 63C290.209 63 292 61.2091 292 59C292 56.7909 290.209 55 288 55C285.791 55 284 56.7909 284 59ZM288 59.75H329.5V58.25H288V59.75ZM329.5 59.75H371V58.25H329.5V59.75Z" fill="#F9EFE0"/>
</svg>
