<svg width="755" height="508" viewBox="0 0 755 508" fill="none" xmlns="http://www.w3.org/2000/svg">
<rect width="755" height="508" rx="20" fill="#E49B00"/>
<line x1="158" y1="92" x2="671.009" y2="92" stroke="#F7C660" stroke-width="4"/>
<line x1="158.004" y1="127.5" x2="671.013" y2="127.5" stroke="#F7C660" stroke-width="4"/>
<line x1="158.008" y1="163" x2="671.017" y2="163" stroke="#F7C660" stroke-width="4"/>
<line x1="158.012" y1="198.5" x2="671.021" y2="198.5" stroke="#F7C660" stroke-width="4"/>
<line x1="158.016" y1="234" x2="671.024" y2="234" stroke="#F7C660" stroke-width="4"/>
<line x1="158.02" y1="269.5" x2="671.028" y2="269.5" stroke="#F7C660" stroke-width="4"/>
<line x1="158.023" y1="305" x2="671.032" y2="305" stroke="#F7C660" stroke-width="4"/>
<line x1="158.027" y1="340.5" x2="671.036" y2="340.5" stroke="#F7C660" stroke-width="4"/>
<line x1="158.031" y1="376" x2="671.04" y2="376" stroke="#F7C660" stroke-width="4"/>
<line x1="158.035" y1="411.5" x2="671.044" y2="411.5" stroke="#F7C660" stroke-width="4"/>
<path d="M62.25 96C66.08 96 69.89 96 73.72 96C76.16 101.95 78.63 107.89 81.13 113.84C80.94 113.88 80.7 113.87 80.52 113.88C82.99 107.92 85.47 101.96 87.94 96C91.61 96 95.27 96 98.93 96C98.95 107.17 98.93 118.36 98.93 129.52C96.26 129.54 93.57 129.54 90.89 129.54C90.89 121.59 90.84 113.57 90.89 105.64C91.23 105.61 91.63 105.66 91.98 105.66C89.11 112.57 86.23 119.49 83.36 126.4C81.64 126.41 79.91 126.41 78.16 126.4C75.32 119.51 72.47 112.62 69.59 105.69C69.76 105.68 70.02 105.69 70.27 105.72C70.27 113.63 70.27 121.6 70.24 129.53C67.57 129.5 64.93 129.52 62.26 129.53C62.26 118.35 62.23 107.12 62.25 96ZM62.21 199.55C62.21 188.36 62.17 177.17 62.21 165.98C69.68 165.98 77.16 165.98 84.63 165.97C84.65 168.3 84.65 170.61 84.62 172.89C79.82 172.92 75.02 172.92 70.21 172.92C70.18 175.03 70.22 177.2 70.21 179.36C74.73 179.37 79.23 179.37 83.75 179.37C83.75 181.68 83.73 183.98 83.74 186.32C79.23 186.32 74.72 186.31 70.22 186.3C70.21 188.38 70.22 190.45 70.22 192.54C75.03 192.55 79.82 192.55 84.64 192.54C84.63 194.88 84.65 197.22 84.65 199.55C77.17 199.54 69.68 199.54 62.21 199.55ZM62.11 235.99C64.9 235.99 67.65 235.96 70.44 235.97C74.96 242.76 79.45 249.53 83.94 256.29C83.74 256.29 83.55 256.29 83.38 256.29C83.39 249.53 83.38 242.75 83.4 235.99C86.06 235.97 88.73 235.99 91.39 235.97C91.39 247.15 91.4 258.34 91.4 269.54C88.81 269.55 86.23 269.55 83.66 269.52C78.71 262.11 73.73 254.66 68.75 247.18C69.21 247.22 69.67 247.22 70.07 247.21C70.1 254.68 70.1 262.11 70.11 269.55C67.41 269.51 64.78 269.54 62.12 269.55C62.11 258.35 62.1 247.15 62.11 235.99ZM62 305.99C64.63 306 67.3 306 69.98 305.99C69.98 312.78 69.97 319.56 69.98 326.34C69.98 328.73 70.6 330.45 71.82 331.5C73.04 332.55 74.55 333.05 76.4 333.07C78.26 333.05 79.79 332.55 81.02 331.48C82.21 330.45 82.85 328.72 82.85 326.31C82.85 319.56 82.87 312.78 82.84 305.99C85.52 306 88.19 306 90.84 306C90.84 312.78 90.84 319.56 90.84 326.33C90.85 329.18 90.26 331.62 89.16 333.73C88.04 335.85 86.39 337.46 84.26 338.61C82.11 339.77 79.48 340.34 76.4 340.35C73.28 340.34 70.66 339.76 68.49 338.62C66.37 337.43 64.73 335.84 63.65 333.72C62.49 331.64 62 329.16 62 326.35C62 319.56 62 312.78 62 305.99Z" fill="#F7C660"/>
</svg>
