<svg width="423" height="262" viewBox="0 0 423 262" fill="none" xmlns="http://www.w3.org/2000/svg">
<mask id="path-1-inside-1_109_930" fill="white">
<path d="M0 5C0 2.23858 2.23858 0 5 0H418C420.761 0 423 2.23858 423 5V242H0V5Z"/>
</mask>
<path d="M0 5C0 2.23858 2.23858 0 5 0H418C420.761 0 423 2.23858 423 5V242H0V5Z" fill="#F6E6D5" stroke="#393043" stroke-width="12" mask="url(#path-1-inside-1_109_930)"/>
<path d="M1 46.3535V5C1 2.23858 3.23858 0 6 0H47C49.7614 0 52 2.23857 52 5V46.3535C52 52.9023 47.1 66 27.5 66C7.9 66 1.66667 52.9023 1 46.3535Z" fill="#B64D5D"/>
<line x1="19" y1="1" x2="19" y2="63" stroke="white" stroke-width="2" stroke-linecap="round"/>
<path d="M34 1L34 64" stroke="white" stroke-width="2" stroke-linecap="round"/>
<path d="M54 46.3535V5C54 2.23858 56.2386 0 59 0H100C102.761 0 105 2.23857 105 5V46.3535C105 52.9023 100.1 66 80.5 66C60.9 66 54.6667 52.9023 54 46.3535Z" fill="#4747FD"/>
<line x1="72" y1="1" x2="72" y2="63" stroke="white" stroke-width="2" stroke-linecap="round"/>
<path d="M87 1L87 64" stroke="white" stroke-width="2" stroke-linecap="round"/>
<path d="M107 46.3535V5C107 2.23858 109.239 0 112 0H153C155.761 0 158 2.23857 158 5V46.3535C158 52.9023 153.1 66 133.5 66C113.9 66 107.667 52.9023 107 46.3535Z" fill="#B64D5D"/>
<line x1="125" y1="1" x2="125" y2="63" stroke="white" stroke-width="2" stroke-linecap="round"/>
<path d="M140 1L140 64" stroke="white" stroke-width="2" stroke-linecap="round"/>
<path d="M160 46.3535V5C160 2.23858 162.239 0 165 0H206C208.761 0 211 2.23857 211 5V46.3535C211 52.9023 206.1 66 186.5 66C166.9 66 160.667 52.9023 160 46.3535Z" fill="#4747FD"/>
<line x1="178" y1="1" x2="178" y2="63" stroke="white" stroke-width="2" stroke-linecap="round"/>
<path d="M193 1L193 64" stroke="white" stroke-width="2" stroke-linecap="round"/>
<path d="M213 46.3535V5C213 2.23858 215.239 0 218 0H259C261.761 0 264 2.23857 264 5V46.3535C264 52.9023 259.1 66 239.5 66C219.9 66 213.667 52.9023 213 46.3535Z" fill="#B64D5D"/>
<line x1="231" y1="1" x2="231" y2="63" stroke="white" stroke-width="2" stroke-linecap="round"/>
<path d="M246 1L246 64" stroke="white" stroke-width="2" stroke-linecap="round"/>
<path d="M266 46.3535V5C266 2.23858 268.239 0 271 0H312C314.761 0 317 2.23857 317 5V46.3535C317 52.9023 312.1 66 292.5 66C272.9 66 266.667 52.9023 266 46.3535Z" fill="#4747FD"/>
<line x1="284" y1="1" x2="284" y2="63" stroke="white" stroke-width="2" stroke-linecap="round"/>
<path d="M299 1L299 64" stroke="white" stroke-width="2" stroke-linecap="round"/>
<path d="M319 46.3535V5C319 2.23858 321.239 0 324 0H365C367.761 0 370 2.23857 370 5V46.3535C370 52.9023 365.1 66 345.5 66C325.9 66 319.667 52.9023 319 46.3535Z" fill="#B64D5D"/>
<line x1="337" y1="1" x2="337" y2="63" stroke="white" stroke-width="2" stroke-linecap="round"/>
<path d="M352 1L352 64" stroke="white" stroke-width="2" stroke-linecap="round"/>
<path d="M372 46.3535V5C372 2.23858 374.239 0 377 0H418C420.761 0 423 2.23857 423 5V46.3535C423 52.9023 418.1 66 398.5 66C378.9 66 372.667 52.9023 372 46.3535Z" fill="#4747FD"/>
<line x1="390" y1="1" x2="390" y2="63" stroke="white" stroke-width="2" stroke-linecap="round"/>
<path d="M405 1L405 64" stroke="white" stroke-width="2" stroke-linecap="round"/>
<path d="M54 128C54 125.239 56.2386 123 59 123H133C135.761 123 138 125.239 138 128V242H54V128Z" fill="#393043"/>
<path d="M0 242H423V262H0V242Z" fill="#393043"/>
</svg>
